<?xml version="1.0" encoding="UTF-8"?>
<svg id="Layer_1" data-name="Layer 1" xmlns="http://www.w3.org/2000/svg" viewBox="0 0 73.26 73.26">
  <defs>
    <style>
      .cls-1 {
        fill: none;
        stroke: #f49f64;
        stroke-miterlimit: 10;
        stroke-width: 4.54px;
      }

      .cls-2 {
        fill: #fefefd;
      }

      .cls-2, .cls-3 {
        stroke-width: 0px;
      }

      .cls-3 {
        fill: #e86500;
      }
    </style>
  </defs>
  <circle class="cls-3" cx="36.63" cy="36.63" r="36.63"/>
  <polygon class="cls-2" points="52.48 58.21 37.06 47.17 21.81 58.43 27.53 40.36 12.12 29.32 31.08 29.19 36.81 11.11 42.79 29.1 61.75 28.97 46.49 40.22 52.48 58.21"/>
  <path class="cls-1" d="M68.42,36.4c0,9.85-4.43,18.67-11.41,24.58-1.55,1.31-3.23,2.48-5.02,3.49-1.78,1-3.67,1.84-5.65,2.49-3.17,1.05-6.57,1.62-10.09,1.62-17.77,0-32.17-14.4-32.17-32.17S18.49,4.23,36.25,4.23s32.17,14.4,32.17,32.17Z"/>
</svg>