<?xml version="1.0" encoding="UTF-8"?>
<svg id="Layer_1" data-name="Layer 1" xmlns="http://www.w3.org/2000/svg" viewBox="0 0 73.26 73.26">
  <defs>
    <style>
      .cls-1 {
        font-family: MyriadConceptRoman-Bold, 'Myriad Variable Concept';
        font-size: 11.65px;
        font-variation-settings: 'wght' 700, 'wdth' 100;
        font-weight: 700;
      }

      .cls-1, .cls-2 {
        fill: #fff;
      }

      .cls-3 {
        fill: #09437c;
      }

      .cls-3, .cls-2 {
        stroke-width: 0px;
      }

      .cls-4 {
        fill: none;
        stroke: #fff;
        stroke-miterlimit: 10;
        stroke-width: 2.2px;
      }
    </style>
  </defs>
  <circle class="cls-3" cx="36.63" cy="36.63" r="36.63"/>
  <g>
    <path class="cls-2" d="M16.09,50.22l2.76,3.49-.7.55-2.1-2.65-2.15,1.7,1.94,2.45-.69.55-1.94-2.45-2.93,2.32-.66-.84,6.48-5.12Z"/>
    <path class="cls-2" d="M16.17,58.89l-2.32,1.45-.85-.71,7.44-4.55.99.82-3.12,8.15-.88-.73.98-2.56-2.25-1.87ZM18.79,59.99l.9-2.34c.2-.53.42-.99.64-1.43l-.02-.02c-.41.3-.83.6-1.28.88l-2.15,1.32,1.91,1.59Z"/>
    <path class="cls-2" d="M21.51,65.75l1.24-8.6,1.03.51-.65,4.22c-.18,1.16-.35,2.19-.58,3.16h.02c.63-.74,1.4-1.52,2.21-2.33l3.06-3.04,1.02.5-6.31,6.1-1.05-.52Z"/>
    <path class="cls-2" d="M36.13,69.3c-.41.15-1.21.26-2.21.15-2.32-.26-3.9-1.92-3.6-4.61.29-2.57,2.22-4.12,4.77-3.84,1.02.11,1.65.41,1.91.58l-.35.84c-.38-.24-.94-.45-1.62-.53-1.93-.21-3.34.87-3.58,3.03-.22,2.01.79,3.43,2.79,3.66.65.07,1.32.01,1.77-.15l.13.87Z"/>
    <path class="cls-2" d="M37.64,61.22l1.06-.13.88,7.32,3.51-.42.11.89-4.57.55-.99-8.21Z"/>
    <path class="cls-2" d="M45.93,65.41l.12,2.74-1.03.39-.29-8.73,1.21-.46,5.56,6.74-1.07.4-1.74-2.12-2.74,1.04ZM48.17,63.67l-1.6-1.94c-.36-.44-.65-.86-.93-1.26h-.02c.06.51.11,1.03.14,1.56l.09,2.52,2.33-.88Z"/>
    <path class="cls-2" d="M49.9,57.28l4.32,7.04-.91.56-4.32-7.04.91-.56Z"/>
    <path class="cls-2" d="M59.27,55.25c-.86-.78-1.88-1.71-2.6-2.45l-.03.03c.48.89.96,1.86,1.47,2.96l1.79,3.88-.58.57-3.72-1.86c-1.1-.55-2.09-1.08-2.94-1.61l-.02.02c.71.75,1.64,1.78,2.46,2.71l2.34,2.67-.72.72-5.41-6.28.97-.96,3.82,1.85c.96.48,1.8.93,2.55,1.39l.03-.03c-.44-.74-.87-1.59-1.34-2.59l-1.77-3.88.97-.96,6.19,5.51-.74.73-2.7-2.43Z"/>
  </g>
  <path class="cls-4" d="M36.52,55.21c10.4,0,18.77-8.37,18.77-18.77s-8.37-18.77-18.77-18.77-18.77,8.37-18.77,18.77,8.37,18.77,18.77,18.77Z"/>
  <path class="cls-2" d="M36.52,17.67v18.96s12.07,14.21,12.07,14.21c0,0,9.86-7.37,5.07-22.09-3.61-11.08-17.13-11.08-17.13-11.08Z"/>
  <text class="cls-1" transform="translate(12.69 30.58) rotate(-63.81)"><tspan x="0" y="0">W</tspan></text>
  <text class="cls-1" transform="translate(17.6 21.43) rotate(-44.23)"><tspan x="0" y="0">E</tspan></text>
  <text class="cls-1" transform="translate(22.25 16.93) rotate(-28.9)"><tspan x="0" y="0">T</tspan></text>
  <text class="cls-1" transform="translate(27.94 13.67) rotate(-11.55)"><tspan x="0" y="0">H</tspan></text>
  <text class="cls-1" transform="translate(36.02 12.3) rotate(3.31)"><tspan x="0" y="0">-</tspan></text>
  <text class="cls-1" transform="translate(40.05 12.28) rotate(16.99)"><tspan x="0" y="0">U</tspan></text>
  <text class="cls-1" transform="translate(47.72 14.77) rotate(34.1)"><tspan x="0" y="0">S</tspan></text>
  <text class="cls-1" transform="translate(53.15 18.31) rotate(51.32)"><tspan x="0" y="0">D</tspan></text>
  <text class="cls-1" transform="translate(58.19 24.78) rotate(69.2)"><tspan x="0" y="0">C</tspan></text>
</svg>