<?xml version="1.0" encoding="UTF-8"?>
<svg id="Layer_1" data-name="Layer 1" xmlns="http://www.w3.org/2000/svg" viewBox="0 0 73.26 73.26">
  <defs>
    <style>
      .cls-1 {
        fill: none;
        stroke: #fff;
        stroke-miterlimit: 10;
        stroke-width: 2.2px;
      }

      .cls-2 {
        fill: #09437c;
      }

      .cls-2, .cls-3 {
        stroke-width: 0px;
      }

      .cls-3 {
        fill: #fff;
      }
    </style>
  </defs>
  <circle class="cls-2" cx="36.63" cy="36.63" r="36.63"/>
  <g>
    <path class="cls-3" d="M16.09,50.22l2.76,3.49-.7.55-2.1-2.65-2.15,1.7,1.94,2.45-.69.55-1.94-2.45-2.93,2.32-.66-.84,6.48-5.12Z"/>
    <path class="cls-3" d="M16.17,58.89l-2.32,1.45-.85-.71,7.44-4.55.99.82-3.12,8.15-.88-.73.98-2.56-2.25-1.87ZM18.79,59.99l.9-2.34c.2-.53.42-.99.64-1.43l-.02-.02c-.41.3-.83.6-1.28.88l-2.15,1.32,1.91,1.59Z"/>
    <path class="cls-3" d="M21.51,65.75l1.24-8.6,1.03.51-.65,4.22c-.18,1.16-.35,2.19-.58,3.16h.02c.63-.74,1.4-1.52,2.21-2.33l3.06-3.04,1.02.5-6.31,6.1-1.05-.52Z"/>
    <path class="cls-3" d="M36.13,69.3c-.41.15-1.21.26-2.21.15-2.32-.26-3.9-1.92-3.6-4.61.29-2.57,2.22-4.12,4.77-3.84,1.02.11,1.65.41,1.91.58l-.35.84c-.38-.24-.94-.45-1.62-.53-1.93-.21-3.34.87-3.58,3.03-.22,2.01.79,3.43,2.79,3.66.65.07,1.32.01,1.77-.15l.13.87Z"/>
    <path class="cls-3" d="M37.64,61.22l1.06-.13.88,7.32,3.51-.42.11.89-4.57.55-.99-8.21Z"/>
    <path class="cls-3" d="M45.93,65.41l.12,2.74-1.03.39-.29-8.73,1.21-.46,5.56,6.74-1.07.4-1.74-2.12-2.74,1.04ZM48.17,63.67l-1.6-1.94c-.36-.44-.65-.86-.93-1.26h-.02c.06.51.11,1.03.14,1.56l.09,2.52,2.33-.88Z"/>
    <path class="cls-3" d="M49.9,57.28l4.32,7.04-.91.56-4.32-7.04.91-.56Z"/>
    <path class="cls-3" d="M59.27,55.25c-.86-.78-1.88-1.71-2.6-2.45l-.03.03c.48.89.96,1.86,1.47,2.96l1.79,3.88-.58.57-3.72-1.86c-1.1-.55-2.09-1.08-2.94-1.61l-.02.02c.71.75,1.64,1.78,2.46,2.71l2.34,2.67-.72.72-5.41-6.28.97-.96,3.82,1.85c.96.48,1.8.93,2.55,1.39l.03-.03c-.44-.74-.87-1.59-1.34-2.59l-1.77-3.88.97-.96,6.19,5.51-.74.73-2.7-2.43Z"/>
  </g>
  <path class="cls-1" d="M36.52,55.21c10.4,0,18.77-8.37,18.77-18.77s-8.37-18.77-18.77-18.77-18.77,8.37-18.77,18.77,8.37,18.77,18.77,18.77Z"/>
  <path class="cls-3" d="M36.52,17.67v18.96l12.07,14.21s9.86-7.37,5.07-22.09c-3.61-11.08-17.13-11.08-17.13-11.08Z"/>
  <g>
    <path class="cls-3" d="M11.55,20.25l2.13,1.07c.53.27,1.1.57,1.68.89l.02-.02c-.45-.48-.85-1.02-1.21-1.47l-1.49-1.91.86-1.11,2.14.94c.61.28,1.2.55,1.78.86v-.02c-.45-.46-.89-.95-1.32-1.45l-1.49-1.77,1.06-1.37,3.44,4.87-1.02,1.31-1.91-.8c-.53-.23-1-.46-1.63-.8v.02c.49.52.83.94,1.16,1.37l1.24,1.68-1.02,1.31-5.52-2.18,1.11-1.43Z"/>
    <path class="cls-3" d="M16.84,11.43c.34-.33,1.08-.91,1.82-1.4.9-.6,1.52-.87,2.18-.91.62-.06,1.24.17,1.63.78.38.58.4,1.34-.15,2.1l.02.02c.88-.3,1.81-.09,2.37.74.4.6.43,1.25.24,1.84-.23.7-.88,1.44-2.18,2.3-.73.48-1.3.79-1.66.96l-4.25-6.43ZM19.97,12.97l.48-.32c.79-.52.98-1.12.66-1.6-.33-.5-.88-.51-1.55-.07-.32.21-.49.36-.6.46l1.01,1.53ZM21.88,15.87c.16-.07.34-.18.59-.35.67-.45,1.09-1.1.64-1.79-.43-.66-1.19-.53-1.93-.04l-.51.33,1.22,1.84Z"/>
    <path class="cls-3" d="M26.58,7.73l-2.02.64-.45-1.42,5.76-1.84.45,1.42-2.05.65,1.93,6.07-1.69.54-1.93-6.07Z"/>
    <path class="cls-3" d="M38.79,12.06c-.31.17-1.05.38-1.99.42-2.72.11-4.19-1.53-4.28-3.77-.11-2.68,1.75-4.23,4.12-4.33.92-.04,1.63.11,1.95.27l-.31,1.42c-.36-.14-.87-.26-1.5-.23-1.4.06-2.46.96-2.39,2.7.06,1.57,1.03,2.52,2.61,2.46.54-.02,1.13-.15,1.47-.31l.32,1.38Z"/>
    <path class="cls-3" d="M43.46,9.5l-.22,1.16-3-.57.22-1.16,3,.57Z"/>
    <path class="cls-3" d="M47.43,6.28c.64.18,1.43.49,2.24.87,1.35.64,2.11,1.3,2.55,2.14.48.9.53,1.98-.06,3.24-.64,1.36-1.58,2.07-2.53,2.32-1.04.27-2.33.03-3.71-.63-.84-.39-1.41-.72-1.78-.97l3.29-6.98ZM46.3,12.84c.13.09.35.2.55.29,1.45.7,2.79.35,3.59-1.35.7-1.48.2-2.66-1.18-3.31-.35-.17-.6-.25-.76-.28l-2.2,4.65Z"/>
    <path class="cls-3" d="M53.95,16.74l-1.79,1.08-1.33-1.26,7.15-4.05,1.69,1.6-3.64,7.38-1.39-1.32.95-1.88-1.64-1.56ZM56.31,17.16l.79-1.55c.22-.43.53-.95.76-1.37l-.02-.02c-.4.26-.9.61-1.3.85l-1.49.89,1.26,1.2Z"/>
    <path class="cls-3" d="M64.14,19.86l-6.58,4.29-.97-1.49,6.58-4.29.97,1.49Z"/>
  </g>
</svg>