<?xml version="1.0" encoding="UTF-8"?>
<svg id="Layer_1" data-name="Layer 1" xmlns="http://www.w3.org/2000/svg" viewBox="0 0 73.26 73.26">
  <defs>
    <style>
      .cls-1 {
        fill: none;
        stroke: #fff;
        stroke-miterlimit: 10;
        stroke-width: 2.2px;
      }

      .cls-2 {
        fill: #09437c;
      }

      .cls-2, .cls-3 {
        stroke-width: 0px;
      }

      .cls-3 {
        fill: #fff;
      }
    </style>
  </defs>
  <circle class="cls-2" cx="36.63" cy="36.63" r="36.63"/>
  <g>
    <path class="cls-3" d="M16.09,50.22l2.76,3.49-.7.55-2.1-2.65-2.15,1.7,1.94,2.45-.69.55-1.94-2.45-2.93,2.32-.66-.84,6.48-5.12Z"/>
    <path class="cls-3" d="M16.17,58.89l-2.32,1.45-.85-.71,7.44-4.55.99.82-3.12,8.15-.88-.73.98-2.56-2.25-1.87ZM18.79,59.99l.9-2.34c.2-.53.42-.99.64-1.43l-.02-.02c-.41.3-.83.6-1.28.88l-2.15,1.32,1.91,1.59Z"/>
    <path class="cls-3" d="M21.51,65.75l1.24-8.6,1.03.51-.65,4.22c-.18,1.16-.35,2.19-.58,3.16h.02c.63-.74,1.4-1.52,2.21-2.33l3.06-3.04,1.02.5-6.31,6.1-1.05-.52Z"/>
    <path class="cls-3" d="M36.13,69.3c-.41.15-1.21.26-2.21.15-2.32-.26-3.9-1.92-3.6-4.61.29-2.57,2.22-4.12,4.77-3.84,1.02.11,1.65.41,1.91.58l-.35.84c-.38-.24-.94-.45-1.62-.53-1.93-.21-3.34.87-3.58,3.03-.22,2.01.79,3.43,2.79,3.66.65.07,1.32.01,1.77-.15l.13.87Z"/>
    <path class="cls-3" d="M37.64,61.22l1.06-.13.88,7.32,3.51-.42.11.89-4.57.55-.99-8.21Z"/>
    <path class="cls-3" d="M45.93,65.41l.12,2.74-1.03.39-.29-8.73,1.21-.46,5.56,6.74-1.07.4-1.74-2.12-2.74,1.04ZM48.17,63.67l-1.6-1.94c-.36-.44-.65-.86-.93-1.26h-.02c.06.51.11,1.03.14,1.56l.09,2.52,2.33-.88Z"/>
    <path class="cls-3" d="M49.9,57.28l4.32,7.04-.91.56-4.32-7.04.91-.56Z"/>
    <path class="cls-3" d="M59.27,55.25c-.86-.78-1.88-1.71-2.6-2.45l-.03.03c.48.89.96,1.86,1.47,2.96l1.79,3.88-.58.57-3.72-1.86c-1.1-.55-2.09-1.08-2.94-1.61l-.02.02c.71.75,1.64,1.78,2.46,2.71l2.34,2.67-.72.72-5.41-6.28.97-.96,3.82,1.85c.96.48,1.8.93,2.55,1.39l.03-.03c-.44-.74-.87-1.59-1.34-2.59l-1.77-3.88.97-.96,6.19,5.51-.74.73-2.7-2.43Z"/>
  </g>
  <path class="cls-1" d="M36.63,55.21c10.4,0,18.77-8.37,18.77-18.77s-8.37-18.77-18.77-18.77-18.77,8.37-18.77,18.77,8.37,18.77,18.77,18.77Z"/>
  <path class="cls-3" d="M36.63,17.67v18.96s12.07,14.21,12.07,14.21c0,0,9.86-7.37,5.07-22.09-3.61-11.08-17.13-11.08-17.13-11.08Z"/>
  <g>
    <path class="cls-3" d="M14.64,19.83l-1.56,2.44,1.58,1.01,1.74-2.72,1.23.78-2.69,4.22-6.62-4.23,2.6-4.08,1.23.78-1.65,2.58,1.38.88,1.56-2.44,1.21.78Z"/>
    <path class="cls-3" d="M15.45,14.51l-1.57,1.42-1-1.1,4.48-4.05,1,1.1-1.59,1.44,4.27,4.72-1.32,1.19-4.27-4.72Z"/>
    <path class="cls-3" d="M21.8,8.09l1.27,2.74,2.66-1.24-1.27-2.74,1.61-.75,3.31,7.13-1.61.75-1.39-2.98-2.66,1.24,1.39,2.98-1.61.75-3.31-7.13,1.61-.75Z"/>
    <path class="cls-3" d="M33.04,8.89l.21,1.16-3,.55-.21-1.16,3-.55Z"/>
    <path class="cls-3" d="M37.31,4.47l-.29,4.51c-.09,1.35.39,2.08,1.29,2.14.93.06,1.48-.56,1.57-1.95l.29-4.51,1.77.11-.28,4.4c-.16,2.42-1.45,3.49-3.5,3.36-1.98-.13-3.06-1.3-2.9-3.79l.28-4.38,1.77.11Z"/>
    <path class="cls-3" d="M43.75,11.39c.35.4.96.89,1.67,1.16.76.29,1.29.13,1.47-.36.17-.45-.08-.85-.84-1.49-1.06-.9-1.61-1.87-1.2-2.94.48-1.25,1.89-1.8,3.61-1.15.84.32,1.38.71,1.73,1.08l-.87,1.19c-.24-.25-.69-.66-1.4-.93-.72-.27-1.19-.07-1.34.3-.18.47.15.83.97,1.55,1.12.98,1.46,1.88,1.07,2.92-.47,1.23-1.8,1.92-3.82,1.16-.83-.32-1.58-.86-1.9-1.24l.86-1.24Z"/>
    <path class="cls-3" d="M53.77,9.36c.58.32,1.29.79,1.99,1.34,1.17.92,1.77,1.74,2.02,2.65.27.98.08,2.05-.78,3.15-.93,1.19-2,1.67-2.99,1.71-1.08.03-2.28-.49-3.48-1.43-.73-.57-1.21-1.02-1.52-1.33l4.76-6.08ZM51.21,15.51c.1.12.3.27.47.41,1.26,1,2.64.95,3.8-.53,1.01-1.28.79-2.55-.42-3.49-.31-.24-.53-.37-.68-.44l-3.17,4.05Z"/>
    <path class="cls-3" d="M58.64,25.43c-.31-.17-.88-.69-1.41-1.47-1.53-2.25-.91-4.37.94-5.62,2.22-1.5,4.52-.75,5.85,1.21.52.76.76,1.45.8,1.8l-1.37.49c-.07-.38-.24-.88-.59-1.4-.79-1.16-2.11-1.59-3.56-.61-1.3.88-1.6,2.21-.71,3.52.31.45.72.88,1.04,1.09l-1,1Z"/>
  </g>
</svg>