<?xml version="1.0" encoding="UTF-8"?>
<svg id="Layer_1" data-name="Layer 1" xmlns="http://www.w3.org/2000/svg" viewBox="0 0 73.26 73.26">
  <defs>
    <style>
      .cls-1 {
        fill: none;
        stroke: #fff;
        stroke-miterlimit: 10;
        stroke-width: 2.2px;
      }

      .cls-2 {
        fill: #fff;
      }

      .cls-2, .cls-3 {
        stroke-width: 0px;
      }

      .cls-3 {
        fill: #fa0;
      }
    </style>
  </defs>
  <circle class="cls-3" cx="36.63" cy="36.63" r="36.63"/>
  <g>
    <path class="cls-2" d="M12.87,31.65l-9.67-1.27.82-2.14,3.91.72c1.13.2,2.34.45,3.29.65v-.03c-.9-.51-1.88-1.13-2.89-1.76l-3.35-2.13.81-2.13,4.01.71c1.11.2,2.12.41,3.15.66v-.03c-.93-.51-1.89-1.1-2.87-1.68l-3.35-2.11.78-2.04,7.99,5.66-.83,2.17-4.1-.7c-.96-.17-1.84-.34-2.9-.62v.03c.93.54,1.72,1,2.53,1.55l3.49,2.29-.84,2.2Z"/>
    <path class="cls-2" d="M10.22,16.04c.31-.49,1.03-1.37,1.77-2.14.9-.95,1.55-1.44,2.32-1.66.71-.24,1.51-.13,2.13.46.61.58.84,1.48.39,2.53l.02.02c.96-.58,2.1-.6,2.99.25.62.59.84,1.34.78,2.1-.08.88-.65,1.93-1.95,3.29-.73.76-1.32,1.29-1.7,1.58l-6.74-6.42ZM14.31,17.01l.49-.51c.78-.81.86-1.57.35-2.06-.52-.5-1.17-.36-1.84.34-.32.33-.48.55-.59.7l1.6,1.52ZM17.35,19.91c.17-.13.34-.32.59-.58.67-.7,1-1.58.27-2.26-.69-.66-1.56-.3-2.3.47l-.5.53,1.93,1.84Z"/>
    <path class="cls-2" d="M20.17,9.57l-2.22,1.25-.88-1.57,6.35-3.57.88,1.57-2.26,1.27,3.77,6.7-1.88,1.06-3.77-6.7Z"/>
    <path class="cls-2" d="M34.89,12.17c-.34.28-1.16.68-2.29.93-3.2.72-5.3-.9-5.89-3.53-.71-3.16,1.14-5.42,3.94-6.06,1.08-.25,1.96-.21,2.37-.1l-.05,1.76c-.47-.08-1.09-.11-1.84.05-1.66.37-2.73,1.67-2.26,3.73.42,1.85,1.78,2.77,3.65,2.35.63-.14,1.3-.44,1.68-.7l.68,1.56Z"/>
    <path class="cls-2" d="M39.11,8.3l-.03,1.42-3.69-.08.03-1.42,3.69.08Z"/>
    <path class="cls-2" d="M44.52,4.06l-1.56,5.23c-.47,1.57-.11,2.54.94,2.85,1.08.32,1.9-.26,2.38-1.86l1.56-5.23,2.05.61-1.52,5.1c-.83,2.81-2.65,3.72-5.02,3.01-2.29-.68-3.26-2.35-2.4-5.25l1.51-5.07,2.06.61Z"/>
    <path class="cls-2" d="M49.47,13.64c.3.57.85,1.33,1.6,1.86.8.57,1.46.54,1.82.03.34-.48.17-1.02-.52-2.01-.97-1.36-1.3-2.66-.5-3.79.94-1.32,2.75-1.55,4.58-.26.87.62,1.38,1.26,1.7,1.79l-1.39,1.13c-.2-.37-.6-.98-1.36-1.51-.76-.54-1.37-.45-1.65-.05-.35.49-.07,1.02.66,2.11,1.01,1.47,1.15,2.64.37,3.73-.92,1.3-2.7,1.69-4.82.19-.88-.63-1.59-1.47-1.86-2.02l1.38-1.19Z"/>
    <path class="cls-2" d="M61.34,13.91c.56.57,1.22,1.36,1.86,2.24,1.05,1.46,1.48,2.6,1.45,3.74-.02,1.23-.6,2.41-1.96,3.39-1.47,1.06-2.88,1.26-4.04.97-1.26-.32-2.47-1.33-3.56-2.83-.65-.9-1.06-1.58-1.31-2.06l7.56-5.46ZM56.32,20.19c.07.17.25.41.4.63,1.13,1.58,2.73,1.98,4.57.66,1.61-1.14,1.77-2.69.7-4.18-.28-.39-.5-.61-.64-.74l-5.03,3.63Z"/>
    <path class="cls-2" d="M60.95,33.48c-.3-.32-.75-1.12-1.07-2.23-.91-3.15.59-5.34,3.18-6.08,3.11-.9,5.48.82,6.27,3.58.31,1.07.32,1.94.24,2.36l-1.76.05c.06-.47.05-1.1-.16-1.83-.47-1.64-1.82-2.62-3.85-2.04-1.83.53-2.66,1.94-2.13,3.78.18.62.51,1.27.79,1.63l-1.52.77Z"/>
  </g>
  <g>
    <path class="cls-2" d="M16.09,50.22l2.76,3.49-.7.55-2.1-2.65-2.15,1.7,1.94,2.45-.69.55-1.94-2.45-2.93,2.32-.66-.84,6.48-5.12Z"/>
    <path class="cls-2" d="M16.17,58.89l-2.32,1.45-.85-.71,7.44-4.55.99.82-3.12,8.15-.88-.73.98-2.56-2.25-1.87ZM18.79,59.99l.9-2.34c.2-.53.42-.99.64-1.43l-.02-.02c-.41.3-.83.6-1.28.88l-2.15,1.32,1.91,1.59Z"/>
    <path class="cls-2" d="M21.51,65.75l1.24-8.6,1.03.51-.65,4.22c-.18,1.16-.35,2.19-.58,3.16h.02c.63-.74,1.4-1.52,2.21-2.33l3.06-3.04,1.02.5-6.31,6.1-1.05-.52Z"/>
    <path class="cls-2" d="M30.3,67.57c.44.35,1.1.69,1.83.78,1.08.14,1.79-.35,1.9-1.17.1-.77-.28-1.26-1.33-1.83-1.28-.65-2.01-1.45-1.86-2.6.17-1.28,1.35-2.09,2.94-1.88.84.11,1.42.38,1.76.64l-.4.83c-.25-.18-.76-.5-1.51-.59-1.12-.15-1.63.47-1.71,1.03-.1.77.35,1.21,1.42,1.79,1.32.72,1.94,1.48,1.78,2.68-.17,1.26-1.24,2.24-3.18,1.98-.79-.1-1.62-.45-2.02-.8l.38-.85Z"/>
    <path class="cls-2" d="M38.33,62.01l-2.51.22-.08-.9,6.1-.53.08.9-2.52.22.64,7.33-1.08.09-.64-7.33Z"/>
    <path class="cls-2" d="M44.15,65.92l-.05,2.74-1.05.33.24-8.73,1.23-.38,5.14,7.06-1.09.34-1.61-2.22-2.8.87ZM46.49,64.32l-1.48-2.03c-.34-.46-.6-.89-.86-1.31h-.02c.03.51.05,1.03.04,1.56l-.07,2.52,2.38-.74Z"/>
    <path class="cls-2" d="M47.61,58.83c.34-.33.93-.78,1.56-1.18.91-.56,1.59-.77,2.24-.69.53.04,1.01.32,1.35.88.42.68.34,1.55-.23,2.28v.02c.78-.25,1.91-.18,2.56.86.38.6.42,1.21.28,1.77-.21.75-.87,1.45-2.02,2.17-.62.39-1.13.65-1.46.79l-4.3-6.9ZM50.3,61.13l.82-.51c.96-.6,1.21-1.45.79-2.12-.51-.82-1.34-.76-2.25-.18-.42.26-.64.44-.76.56l1.41,2.26ZM52.4,64.5c.2-.08.46-.23.79-.43.94-.58,1.59-1.46.95-2.49-.6-.96-1.67-.84-2.65-.22l-.75.47,1.67,2.67Z"/>
    <path class="cls-2" d="M52.5,55.43l.76-.75,5.19,5.24,2.51-2.49.63.64-3.27,3.24-5.82-5.87Z"/>
    <path class="cls-2" d="M62.08,50.56l-1.76,2.69,2.5,1.63,1.96-3,.75.49-2.54,3.89-6.92-4.51,2.44-3.74.75.49-1.86,2.84,2.19,1.43,1.75-2.69.74.48Z"/>
  </g>
  <path class="cls-1" d="M36.63,55.21c10.4,0,18.77-8.37,18.77-18.77s-8.37-18.77-18.77-18.77-18.77,8.37-18.77,18.77,8.37,18.77,18.77,18.77Z"/>
  <path class="cls-2" d="M36.63,17.67v18.96s12.07,14.21,12.07,14.21c0,0,9.86-7.37,5.07-22.09-3.61-11.08-17.13-11.08-17.13-11.08Z"/>
</svg>