<?xml version="1.0" encoding="UTF-8"?>
<svg id="Layer_1" data-name="Layer 1" xmlns="http://www.w3.org/2000/svg" viewBox="0 0 73.26 73.26">
  <defs>
    <style>
      .cls-1 {
        fill: none;
        stroke: #fff;
        stroke-miterlimit: 10;
        stroke-width: 2.2px;
      }

      .cls-2 {
        fill: #fff;
      }

      .cls-2, .cls-3 {
        stroke-width: 0px;
      }

      .cls-3 {
        fill: #fa0;
      }
    </style>
  </defs>
  <circle class="cls-3" cx="36.63" cy="36.63" r="36.63"/>
  <g>
    <path class="cls-2" d="M16.92,16.57l-2.23,2.68,1.73,1.44,2.49-3,1.35,1.12-3.87,4.65-7.29-6.07,3.75-4.5,1.35,1.12-2.37,2.85,1.51,1.26,2.23-2.68,1.34,1.12Z"/>
    <path class="cls-2" d="M18.21,10.86l-2.12,1.41-1-1.5,6.07-4.04,1,1.5-2.16,1.43,4.26,6.4-1.79,1.19-4.26-6.4Z"/>
    <path class="cls-2" d="M26.46,4.7l.92,3.53,3.42-.89-.92-3.53,2.07-.54,2.4,9.17-2.07.54-1-3.84-3.42.89,1,3.84-2.08.54-2.4-9.17,2.08-.54Z"/>
    <path class="cls-2" d="M38.89,8.29l-.02,1.42-3.69-.06.02-1.42,3.69.06Z"/>
    <path class="cls-2" d="M42.19,3.52c.79.1,1.8.32,2.84.62,1.73.51,2.76,1.14,3.44,2.06.74.98,1.01,2.27.54,3.88-.51,1.74-1.5,2.76-2.59,3.24-1.19.52-2.76.47-4.54-.05-1.07-.31-1.8-.6-2.3-.82l2.62-8.94ZM42.08,11.56c.16.09.45.17.7.25,1.86.56,3.38-.11,4.01-2.29.57-1.89-.25-3.21-2.02-3.73-.46-.13-.77-.18-.96-.19l-1.74,5.96Z"/>
    <path class="cls-2" d="M51.15,14.52l-1.99,1.55-1.79-1.32,7.98-5.9,2.26,1.68-3.28,9.37-1.85-1.37.86-2.39-2.18-1.62ZM54.03,14.66l.72-1.97c.2-.55.48-1.22.7-1.75l-.02-.02c-.45.37-.99.86-1.44,1.21l-1.65,1.28,1.68,1.25Z"/>
    <path class="cls-2" d="M63.28,16.37l-7.36,5.99-1.36-1.67,7.36-5.99,1.36,1.67Z"/>
  </g>
  <g>
    <path class="cls-2" d="M16.09,50.22l2.76,3.49-.7.55-2.1-2.65-2.15,1.7,1.94,2.45-.69.55-1.94-2.45-2.93,2.32-.66-.84,6.48-5.12Z"/>
    <path class="cls-2" d="M16.17,58.89l-2.32,1.45-.85-.71,7.44-4.55.99.82-3.12,8.15-.88-.73.98-2.56-2.25-1.87ZM18.79,59.99l.9-2.34c.2-.53.42-.99.64-1.43l-.02-.02c-.41.3-.83.6-1.28.88l-2.15,1.32,1.91,1.59Z"/>
    <path class="cls-2" d="M21.51,65.75l1.24-8.6,1.03.51-.65,4.22c-.18,1.16-.35,2.19-.58,3.16h.02c.63-.74,1.4-1.52,2.21-2.33l3.06-3.04,1.02.5-6.31,6.1-1.05-.52Z"/>
    <path class="cls-2" d="M30.3,67.57c.44.35,1.1.69,1.83.78,1.08.14,1.79-.35,1.9-1.17.1-.77-.28-1.26-1.33-1.83-1.28-.65-2.01-1.45-1.86-2.6.17-1.28,1.35-2.09,2.94-1.88.84.11,1.42.38,1.76.64l-.4.83c-.25-.18-.76-.5-1.51-.59-1.12-.15-1.63.47-1.71,1.03-.1.77.35,1.21,1.42,1.79,1.32.72,1.94,1.48,1.78,2.68-.17,1.26-1.24,2.24-3.18,1.98-.79-.1-1.62-.45-2.02-.8l.38-.85Z"/>
    <path class="cls-2" d="M38.33,62.01l-2.51.22-.08-.9,6.1-.53.08.9-2.52.22.64,7.33-1.08.09-.64-7.33Z"/>
    <path class="cls-2" d="M44.15,65.92l-.05,2.74-1.05.33.24-8.73,1.23-.38,5.14,7.06-1.09.34-1.61-2.22-2.8.87ZM46.49,64.32l-1.48-2.03c-.34-.46-.6-.89-.86-1.31h-.02c.03.51.05,1.03.04,1.56l-.07,2.52,2.38-.74Z"/>
    <path class="cls-2" d="M47.61,58.83c.34-.33.93-.78,1.56-1.18.91-.56,1.59-.77,2.24-.69.53.04,1.01.32,1.35.88.42.68.34,1.55-.23,2.28v.02c.78-.25,1.91-.18,2.56.86.38.6.42,1.21.28,1.77-.21.75-.87,1.45-2.02,2.17-.62.39-1.13.65-1.46.79l-4.3-6.9ZM50.3,61.13l.82-.51c.96-.6,1.21-1.45.79-2.12-.51-.82-1.34-.76-2.25-.18-.42.26-.64.44-.76.56l1.41,2.26ZM52.4,64.5c.2-.08.46-.23.79-.43.94-.58,1.59-1.46.95-2.49-.6-.96-1.67-.84-2.65-.22l-.75.47,1.67,2.67Z"/>
    <path class="cls-2" d="M52.5,55.43l.76-.75,5.19,5.24,2.51-2.49.63.64-3.27,3.24-5.82-5.87Z"/>
    <path class="cls-2" d="M62.08,50.56l-1.76,2.69,2.5,1.63,1.96-3,.75.49-2.54,3.89-6.92-4.51,2.44-3.74.75.49-1.86,2.84,2.19,1.43,1.75-2.69.74.48Z"/>
  </g>
  <path class="cls-1" d="M36.63,55.21c10.4,0,18.77-8.37,18.77-18.77s-8.37-18.77-18.77-18.77-18.77,8.37-18.77,18.77,8.37,18.77,18.77,18.77Z"/>
  <path class="cls-2" d="M36.63,17.67v18.96s12.07,14.21,12.07,14.21c0,0,9.86-7.37,5.07-22.09-3.61-11.08-17.13-11.08-17.13-11.08Z"/>
</svg>