<?xml version="1.0" encoding="UTF-8"?>
<svg id="Layer_1" data-name="Layer 1" xmlns="http://www.w3.org/2000/svg" viewBox="0 0 73.26 73.26">
  <defs>
    <style>
      .cls-1 {
        font-family: MyriadConceptRoman-Bold, 'Myriad Variable Concept';
        font-size: 11.65px;
        font-variation-settings: 'wght' 700, 'wdth' 100;
        font-weight: 700;
      }

      .cls-1, .cls-2 {
        fill: #fff;
      }

      .cls-3 {
        fill: #fa0;
      }

      .cls-3, .cls-2 {
        stroke-width: 0px;
      }

      .cls-4 {
        fill: none;
        stroke: #fff;
        stroke-miterlimit: 10;
        stroke-width: 2.2px;
      }
    </style>
  </defs>
  <circle class="cls-3" cx="36.63" cy="36.63" r="36.63"/>
  <g>
    <path class="cls-4" d="M36.63,55.4c10.4,0,18.77-8.37,18.77-18.77s-8.37-18.77-18.77-18.77-18.77,8.37-18.77,18.77,8.37,18.77,18.77,18.77Z"/>
    <path class="cls-2" d="M47.02,42.45c0-5.49-3.29-7.37-9.87-8.15-4.7-.63-5.64-1.88-5.64-4.08s1.57-3.6,4.7-3.6c2.82,0,4.39.94,5.17,3.29.16.47.63.78,1.1.78h2.51c.63,0,1.1-.47,1.1-1.1v-.16c-.63-3.45-3.45-6.11-7.05-6.43v-3.76c0-.63-.47-1.1-1.25-1.25h-2.35c-.63,0-1.1.47-1.25,1.25v3.6c-4.7.63-7.68,3.76-7.68,7.68,0,5.17,3.13,7.21,9.72,7.99,4.39.78,5.8,1.72,5.8,4.23s-2.19,4.23-5.17,4.23c-4.08,0-5.49-1.72-5.96-4.08-.16-.63-.63-.94-1.1-.94h-2.66c-.63,0-1.1.47-1.1,1.1v.16c.63,3.92,3.13,6.74,8.31,7.52v3.76c0,.63.47,1.1,1.25,1.25h2.35c.63,0,1.1-.47,1.25-1.25v-3.76c4.7-.78,7.84-4.08,7.84-8.31h0Z"/>
  </g>
  <g>
    <path class="cls-2" d="M16.09,50.22l2.76,3.49-.7.55-2.1-2.65-2.15,1.7,1.94,2.45-.69.55-1.94-2.45-2.93,2.32-.66-.84,6.48-5.12Z"/>
    <path class="cls-2" d="M16.17,58.89l-2.32,1.45-.85-.71,7.44-4.55.99.82-3.12,8.15-.88-.73.98-2.56-2.25-1.87ZM18.79,59.99l.9-2.34c.2-.53.42-.99.64-1.43l-.02-.02c-.41.3-.83.6-1.28.88l-2.15,1.32,1.91,1.59Z"/>
    <path class="cls-2" d="M21.51,65.75l1.24-8.6,1.03.51-.65,4.22c-.18,1.16-.35,2.19-.58,3.16h.02c.63-.74,1.4-1.52,2.21-2.33l3.06-3.04,1.02.5-6.31,6.1-1.05-.52Z"/>
    <path class="cls-2" d="M30.3,67.57c.44.35,1.1.69,1.83.78,1.08.14,1.79-.35,1.9-1.17.1-.77-.28-1.26-1.33-1.83-1.28-.65-2.01-1.45-1.86-2.6.17-1.28,1.35-2.09,2.94-1.88.84.11,1.42.38,1.76.64l-.4.83c-.25-.18-.76-.5-1.51-.59-1.12-.15-1.63.47-1.71,1.03-.1.77.35,1.21,1.42,1.79,1.32.72,1.94,1.48,1.78,2.68-.17,1.26-1.24,2.24-3.18,1.98-.79-.1-1.62-.45-2.02-.8l.38-.85Z"/>
    <path class="cls-2" d="M38.33,62.01l-2.51.22-.08-.9,6.1-.53.08.9-2.52.22.64,7.33-1.08.09-.64-7.33Z"/>
    <path class="cls-2" d="M44.15,65.92l-.05,2.74-1.05.33.24-8.73,1.23-.38,5.14,7.06-1.09.34-1.61-2.22-2.8.87ZM46.49,64.32l-1.48-2.03c-.34-.46-.6-.89-.86-1.31h-.02c.03.51.05,1.03.04,1.56l-.07,2.52,2.38-.74Z"/>
    <path class="cls-2" d="M47.61,58.83c.34-.33.93-.78,1.56-1.18.91-.56,1.59-.77,2.24-.69.53.04,1.01.32,1.35.88.42.68.34,1.55-.23,2.28v.02c.78-.25,1.91-.18,2.56.86.38.6.42,1.21.28,1.77-.21.75-.87,1.45-2.02,2.17-.62.39-1.13.65-1.46.79l-4.3-6.9ZM50.3,61.13l.82-.51c.96-.6,1.21-1.45.79-2.12-.51-.82-1.34-.76-2.25-.18-.42.26-.64.44-.76.56l1.41,2.26ZM52.4,64.5c.2-.08.46-.23.79-.43.94-.58,1.59-1.46.95-2.49-.6-.96-1.67-.84-2.65-.22l-.75.47,1.67,2.67Z"/>
    <path class="cls-2" d="M52.5,55.43l.76-.75,5.19,5.24,2.51-2.49.63.64-3.27,3.24-5.82-5.87Z"/>
    <path class="cls-2" d="M62.08,50.56l-1.76,2.69,2.5,1.63,1.96-3,.75.49-2.54,3.89-6.92-4.51,2.44-3.74.75.49-1.86,2.84,2.19,1.43,1.75-2.69.74.48Z"/>
  </g>
  <text class="cls-1" transform="translate(13.02 31.45) rotate(-74.95)"><tspan x="0" y="0"> </tspan></text>
  <text class="cls-1" transform="translate(13.09 29.19) rotate(-60.44)"><tspan x="0" y="0">W</tspan></text>
  <text class="cls-1" transform="translate(18.53 20.33) rotate(-40.9)"><tspan x="0" y="0">E</tspan></text>
  <text class="cls-1" transform="translate(23.42 16.12) rotate(-25.55)"><tspan x="0" y="0">T</tspan></text>
  <text class="cls-1" transform="translate(29.27 13.21) rotate(-8.23)"><tspan x="0" y="0">H</tspan></text>
  <text class="cls-1" transform="translate(37.44 12.32) rotate(5.98)"><tspan x="0" y="0">-</tspan></text>
  <text class="cls-1" transform="translate(41.46 12.51) rotate(20.38)"><tspan x="0" y="0">U</tspan></text>
  <text class="cls-1" transform="translate(48.97 15.45) rotate(37.43)"><tspan x="0" y="0">S</tspan></text>
  <text class="cls-1" transform="translate(54.17 19.29) rotate(54.58)"><tspan x="0" y="0">D</tspan></text>
  <text class="cls-1" transform="translate(58.84 26.04) rotate(72.54)"><tspan x="0" y="0">C</tspan></text>
  <text/>
</svg>