<?xml version="1.0" encoding="UTF-8"?>
<svg id="Layer_1" data-name="Layer 1" xmlns="http://www.w3.org/2000/svg" xmlns:xlink="http://www.w3.org/1999/xlink" viewBox="0 0 382.37 268.74">
  <defs>
    <style>
      .cls-1 {
        fill: url(#linear-gradient);
      }

      .cls-1, .cls-2 {
        stroke-width: 0px;
      }

      .cls-2 {
        fill: gray;
      }
    </style>
    <linearGradient id="linear-gradient" x1="74.78" y1="222.36" x2="126.38" y2="36.18" gradientUnits="userSpaceOnUse">
      <stop offset="0" stop-color="aqua"/>
      <stop offset="0" stop-color="#0bf9ed"/>
      <stop offset="0" stop-color="#2aeac1"/>
      <stop offset="0" stop-color="#5ad47c"/>
      <stop offset="1" stop-color="#fe0"/>
    </linearGradient>
  </defs>
  <path class="cls-1" d="M151.91,49.82c-1.28-1.97-3.05-3.42-5.3-4.33-2.25-.92-4.83-1.38-7.77-1.38h-37.82v46.63h6.6v-41.26h29.98c3.02,0,5.43.87,7.22,2.61,1.79,1.74,2.68,4.21,2.68,7.43v55.43c0,3.3-.89,5.8-2.68,7.5-1.79,1.69-4.51,2.54-8.18,2.54h-35.62s-37.96,0-37.96,0c-3.02,0-5.66.55-7.91,1.65-2.25,1.1-3.97,2.73-5.16,4.88-1.19,2.16-1.79,4.8-1.79,7.91v58.45c0,3.12.64,5.66,1.92,7.63,1.28,1.97,3.05,3.42,5.3,4.33,2.25.92,4.83,1.38,7.77,1.38h37.82v-46.63h-6.6v41.26h-29.98c-3.02,0-5.43-.87-7.22-2.61-1.79-1.74-2.68-4.21-2.68-7.43v-55.43c0-3.3.89-5.8,2.68-7.5,1.79-1.69,4.51-2.54,8.18-2.54h35.62s37.96,0,37.96,0c3.02,0,5.66-.55,7.91-1.65,2.25-1.1,3.97-2.73,5.16-4.88,1.19-2.16,1.79-4.8,1.79-7.91v-58.45c0-3.12-.64-5.66-1.92-7.63Z"/>
  <g>
    <path class="cls-2" d="M117.59,210.21c-1.42-.46-2.57-1.25-3.44-2.36s-1.3-2.52-1.3-4.23v-14.79c0-1.78.39-3.32,1.17-4.61s1.93-2.27,3.44-2.95c1.51-.68,3.41-1.02,5.71-1.02h21.18v-15.11c0-1.57-.64-2.74-1.93-3.48-1.28-.75-3.03-1.13-5.23-1.13h-20.77v-3.96h21.18c4.31,0,7.43.7,9.35,2.09,1.93,1.39,2.89,3.66,2.89,6.81v45.44h-5.5v-2.79c-.64.86-1.72,1.54-3.23,2.04-1.51.5-3.23.75-5.16.75h-13.62c-1.74,0-3.33-.23-4.75-.7ZM140.69,206.08c1.15-.57,2.04-1.32,2.68-2.25.64-.93.96-1.93.96-3v-16.82h-19.81c-2.11,0-3.67.44-4.68,1.34-1.01.89-1.51,2.13-1.51,3.7v13.18c0,1.72.5,2.93,1.51,3.65s2.43,1.07,4.26,1.07h12.79c1.38,0,2.64-.29,3.78-.86Z"/>
    <path class="cls-2" d="M162.9,156.57h5.5v3c1.1-.93,2.45-1.66,4.06-2.2,1.6-.54,3.37-.8,5.3-.8h13.89v3.96h-13.62c-2.75,0-5.02.71-6.81,2.14-1.79,1.43-2.68,3.43-2.68,6v42.22h-5.64v-54.33Z"/>
    <path class="cls-2" d="M201.79,210.21c-1.42-.46-2.57-1.25-3.44-2.36s-1.3-2.52-1.3-4.23v-14.79c0-1.78.39-3.32,1.17-4.61.78-1.29,1.93-2.27,3.44-2.95,1.51-.68,3.41-1.02,5.71-1.02h21.18v-15.11c0-1.57-.64-2.74-1.93-3.48-1.28-.75-3.03-1.13-5.23-1.13h-20.77v-3.96h21.18c4.31,0,7.43.7,9.35,2.09,1.93,1.39,2.89,3.66,2.89,6.81v45.44h-5.5v-2.79c-.64.86-1.72,1.54-3.23,2.04-1.51.5-3.23.75-5.16.75h-13.62c-1.74,0-3.33-.23-4.75-.7ZM224.9,206.08c1.15-.57,2.04-1.32,2.68-2.25.64-.93.96-1.93.96-3v-16.82h-19.81c-2.11,0-3.67.44-4.68,1.34s-1.51,2.13-1.51,3.7v13.18c0,1.72.5,2.93,1.51,3.65s2.43,1.07,4.26,1.07h12.79c1.38,0,2.64-.29,3.78-.86Z"/>
    <path class="cls-2" d="M251.24,220.98l18.98-.11c2.57-.08,4.49-.68,5.78-1.82,1.28-1.14,1.93-2.79,1.93-4.93v-7.5c-.55.57-1.47,1.14-2.75,1.71-1.28.58-3.07.86-5.36.86h-12.93c-3.3,0-5.87-.73-7.7-2.2-1.83-1.46-2.75-3.77-2.75-6.91v-34.3c0-2.86,1.12-5.11,3.37-6.75,2.25-1.64,5.48-2.46,9.7-2.46h23.93v58.19c0,2.22-.53,4.05-1.58,5.52-1.06,1.47-2.61,2.59-4.68,3.38-2.06.79-4.61,1.18-7.64,1.18h-18.29v-3.86ZM273.59,204.31c1.33-.53,2.38-1.28,3.16-2.25.78-.97,1.17-2.02,1.17-3.16v-38.05h-18.02c-2.57,0-4.52.52-5.85,1.55-1.33,1.04-2,2.56-2,4.56v32.37c0,1.22.23,2.25.69,3.11.46.86,1.17,1.52,2.13,1.98.96.47,2.18.7,3.64.7h11c1.38,0,2.73-.27,4.06-.81Z"/>
    <path class="cls-2" d="M301.3,209.94c-1.65-.64-2.87-1.62-3.65-2.95s-1.17-3.02-1.17-5.09v-35.69c0-3.21.96-5.62,2.89-7.23s4.72-2.41,8.39-2.41h13.89c3.58,0,6.44.73,8.6,2.2,2.15,1.47,3.23,3.88,3.23,7.23v19.72h-33.15v-4.07h27.65v-15.43c0-1.85-.64-3.27-1.93-4.23-1.28-.97-3.07-1.45-5.36-1.45h-11.41c-2.39,0-4.17.43-5.36,1.29-1.19.86-1.79,2.32-1.79,4.39v34.72c0,1.14.23,2.16.69,3.05.46.9,1.19,1.61,2.2,2.14,1.01.54,2.29.81,3.85.81h21.73v3.96h-22.69c-2.75,0-4.95-.32-6.6-.97Z"/>
    <path class="cls-2" d="M175.49,128.67c-1.65-.64-2.87-1.63-3.65-2.95-.78-1.33-1.17-3.02-1.17-5.1v-35.74c0-3.22.97-5.64,2.89-7.24,1.93-1.61,4.73-2.41,8.4-2.41h13.91c3.58,0,6.45.73,8.61,2.2,2.16,1.47,3.24,3.88,3.24,7.24v19.75h-33.2v-4.08h27.69v-15.46c0-1.86-.64-3.27-1.93-4.24-1.29-.97-3.08-1.45-5.37-1.45h-11.43c-2.39,0-4.18.43-5.37,1.29-1.2.86-1.79,2.33-1.79,4.4v34.78c0,1.14.23,2.16.69,3.06.46.89,1.19,1.61,2.2,2.14,1.01.54,2.29.81,3.86.81h21.76v3.97h-22.73c-2.75,0-4.96-.32-6.61-.97Z"/>
    <path class="cls-2" d="M225.21,62.34h38.43v4.19h-31.96v26.94h28.65v4.19h-28.65v31.99h-6.47V62.34Z"/>
    <rect class="cls-2" x="276.79" y="78.04" width="5.78" height="51.59"/>
  </g>
  <rect class="cls-2" x="276.12" y="62.38" width="7.12" height="7.12"/>
</svg>