<?xml version="1.0" encoding="utf-8"?>
<!-- Generator: Adobe Illustrator 28.1.0, SVG Export Plug-In . SVG Version: 6.00 Build 0)  -->
<svg version="1.1" id="Layer_1" xmlns="http://www.w3.org/2000/svg" xmlns:xlink="http://www.w3.org/1999/xlink" x="0px" y="0px"
	 viewBox="0 0 624.8 500" style="enable-background:new 0 0 624.8 500;" xml:space="preserve">
<style type="text/css">
	.st0{fill:#D4D4D4;}
</style>
<g>
	<polygon class="st0" points="0,253.9 3.2,263.1 31,253.5 2.9,244.7 	"/>
	<polygon class="st0" points="626.6,253.8 623.7,244.7 595.7,253.5 623.6,262.8 	"/>
	<path class="st0" d="M623.7,244.6C623.7,244.6,623.7,244.6,623.7,244.6c0-0.1-0.1-0.2-0.1-0.3c0-0.2-0.1-0.4-0.2-0.7
		c-0.2-0.5-0.4-1.3-0.7-2.2c-0.6-1.8-1.5-4.4-2.8-7.5c-2.5-6.3-6.1-15.1-11.3-25.5c-10.2-20.8-26.3-48.7-49.9-76.6
		c-47.5-56.2-125.8-113-245.4-113s-197.9,56.8-245.4,113c-23.6,27.9-39.7,55.7-49.9,76.6c-5.1,10.4-8.8,19.2-11.3,25.5
		c-1.2,3.1-2.1,5.7-2.8,7.5c-0.3,0.9-0.6,1.6-0.7,2.2c-0.1,0.3-0.2,0.5-0.2,0.7c0,0.1,0,0.2-0.1,0.2c0,0,0,0.1,0,0.1c0,0,0,0,0,0
		s9.3,2.9,28,8.8c-18.5,6.4-27.8,9.6-27.8,9.6c0,0,0,0,0,0c0,0,0,0,0,0.1c0,0.1,0,0.1,0.1,0.2c0.1,0.2,0.1,0.4,0.2,0.6
		c0.2,0.5,0.5,1.2,0.8,2.1c0.7,1.7,1.6,4.2,2.9,7.2c2.5,6,6.4,14.4,11.6,24.4c10.5,19.9,26.9,46.4,50.6,73.1
		c47.8,53.8,125.8,108.3,243.4,110.2c118.3,1.9,196.7-53,244.6-107.8c23.8-27.2,40.2-54.5,50.6-74.9c5.2-10.2,9-18.9,11.6-25.1
		c1.3-3.1,2.2-5.6,2.9-7.4c0.3-0.9,0.6-1.6,0.8-2.1c0.1-0.3,0.2-0.5,0.2-0.6c0-0.1,0-0.2,0.1-0.2c0,0,0-0.1,0-0.1c0,0,0,0,0,0
		s-9.3-3.1-27.9-9.3C614.4,247.7,623.7,244.7,623.7,244.6C623.7,244.7,623.7,244.7,623.7,244.6L623.7,244.6z M59,262.4L59,262.4
		C59,262.4,59,262.3,59,262.4L59,262.4z M555.7,271.6c-8.8,17.3-22.7,40.2-42.5,63c-39.4,45.1-102.2,89.3-199.3,87.7
		c-97.7-1.6-161-46.1-200.4-90.5c-19.9-22.4-33.7-44.7-42.5-61.5c-3.7-7.1-6.3-12.7-8.3-17.2c1.9-4.8,4.6-11,8.3-18.6
		c8.7-17.6,22.2-41.1,42-64.5c39.2-46.3,102.1-92.2,200.5-92.2s161.3,45.8,200.5,92.2c19.8,23.4,33.4,46.9,42,64.5
		c3.8,7.8,6.5,14,8.4,18.8C562.2,257.9,559.5,264,555.7,271.6L555.7,271.6z"/>
</g>
<path class="st0" d="M313.3,152.8c-54.5,0-100,43.2-100,98.1s45.5,98.1,100,98.1s100-43.2,100-98.1S367.8,152.8,313.3,152.8
	L313.3,152.8z M313.3,290.1c-23.5,0-41.2-18.3-41.2-39.3s17.7-39.3,41.2-39.3s41.2,18.3,41.2,39.3S336.8,290.1,313.3,290.1z"/>
</svg>
