<?xml version="1.0" encoding="UTF-8"?>
<svg id="Layer_1" data-name="Layer 1" xmlns="http://www.w3.org/2000/svg" viewBox="0 0 624.76 500">
  <defs>
    <style>
      .cls-1 {
        fill: #333;
        stroke-width: 0px;
      }
    </style>
  </defs>
  <g>
    <polygon class="cls-1" points="0 253.93 3.15 263.07 30.96 253.5 2.89 244.71 0 253.93"/>
    <polygon class="cls-1" points="626.57 253.76 623.73 244.71 595.66 253.5 623.58 262.77 626.57 253.76"/>
    <path class="cls-1" d="M623.71,244.65s-.01-.05-.02-.08c-.02-.06-.04-.13-.07-.22-.05-.17-.12-.39-.22-.66-.18-.54-.42-1.27-.74-2.17-.63-1.81-1.55-4.35-2.77-7.49-2.45-6.29-6.14-15.08-11.27-25.53-10.22-20.84-26.3-48.65-49.88-76.56-47.51-56.24-125.75-113.02-245.43-113.02s-197.93,56.78-245.43,113.02c-23.57,27.91-39.67,55.73-49.88,76.56-5.12,10.45-8.81,19.24-11.26,25.53-1.23,3.15-2.14,5.68-2.78,7.49-.32.91-.56,1.64-.74,2.17-.09.27-.16.49-.22.66-.03.09-.05.16-.06.22-.01.03-.02.06-.03.08,0,.01,0,.03,0,.03t28.05,8.82q-27.81,9.57-27.8,9.6s0,.02,0,.03c0,.02.02.05.03.08.02.06.04.13.08.22.06.17.13.38.22.64.19.52.45,1.22.78,2.09.67,1.74,1.62,4.16,2.89,7.17,2.53,6.01,6.35,14.39,11.6,24.36,10.48,19.88,26.86,46.41,50.62,73.12,47.84,53.78,125.75,108.32,243.44,110.25,118.32,1.94,196.66-52.96,244.57-107.8,23.78-27.22,40.16-54.46,50.62-74.89,5.24-10.25,9.04-18.88,11.57-25.06,1.26-3.09,2.22-5.59,2.87-7.37.33-.89.59-1.61.78-2.14.09-.26.17-.48.22-.65.03-.08.05-.16.07-.22,0-.03.02-.06.03-.08,0-.01,0-.03,0-.03t-27.9-9.3q28.07-8.79,28.06-8.82s0-.02-.01-.03ZM59,262.36s0,0,0,0c0,0,0-.01,0-.02,0,0,0,.02,0,.02ZM555.65,271.56c-8.83,17.27-22.66,40.22-42.55,62.98-39.41,45.11-102.25,89.28-199.31,87.69-97.7-1.6-160.96-46.12-200.45-90.53-19.9-22.38-33.72-44.73-42.53-61.45-3.73-7.06-6.33-12.73-8.29-17.23,1.92-4.8,4.55-10.98,8.3-18.64,8.65-17.64,22.25-41.12,42-64.5,39.15-46.35,102.08-92.16,200.5-92.16s161.34,45.81,200.49,92.16c19.75,23.38,33.36,46.87,42.01,64.5,3.8,7.75,6.46,14.01,8.38,18.83-1.98,4.71-4.68,10.8-8.54,18.33Z"/>
  </g>
  <path class="cls-1" d="M313.31,152.76c-54.46,0-100,43.17-100,98.1s45.54,98.1,100,98.1,100-43.17,100-98.1-45.53-98.1-100-98.1ZM313.31,290.13c-23.5,0-41.18-18.34-41.18-39.28s17.68-39.27,41.18-39.27,41.17,18.34,41.17,39.27-17.67,39.28-41.17,39.28Z"/>
</svg>