<?xml version="1.0" encoding="UTF-8"?>
<svg id="Layer_1" data-name="Layer 1" xmlns="http://www.w3.org/2000/svg" viewBox="0 0 629.76 500">
  <defs>
    <style>
      .cls-1 {
        fill: #333;
        stroke-width: 0px;
      }
    </style>
  </defs>
  <path class="cls-1" d="M143.18,8.62c-11.49-11.49-30.1-11.49-41.59,0-11.49,11.49-11.49,30.1,0,41.59l26.77,26.77C38.46,142.68,7.41,239.19,6.09,243.45l-2.9,9.22,3.16,9.15c.72,2.14,76.37,214.14,309.66,217.96,63.45.82,120.35-14,170.44-44.71l56.32,56.31c5.74,5.74,13.27,8.62,20.8,8.62s15.05-2.87,20.8-8.62c11.49-11.49,11.49-30.1,0-41.59L143.18,8.62ZM281.02,229.65l54.69,54.69c-5.86,2.96-12.47,4.54-19.22,4.54-22.69,0-41.16-17.62-41.16-39.28,0-7.05,1.98-13.93,5.69-19.95ZM316.98,420.96c-167.94-2.74-235.61-132.53-251.35-169.05,9.68-23.93,40.67-89.23,104.95-132.71l68.42,68.42c-14.53,17.48-22.49,39.34-22.49,61.98,0,54.1,44.86,98.1,99.98,98.1,22.43,0,44.12-7.38,61.7-20.88l65.17,65.17c-37.48,19.99-79.02,29.6-126.38,28.97Z"/>
  <path class="cls-1" d="M626.92,243.45c-.69-2.25-73.44-225.8-310.43-225.8-12.98,0-25.94.69-38.46,2.04-16.14,1.74-27.83,16.24-26.08,32.4,1.75,16.14,16.37,28,32.4,26.08,10.31-1.11,21-1.69,32.14-1.69,170.35,0,236.16,137.74,250.98,175.38-4.42,10.48-13.18,29.1-27.23,50.09-9.02,13.51-5.37,31.78,8.13,40.8,5.03,3.35,10.71,4.95,16.31,4.95,9.51,0,18.81-4.58,24.5-13.07,26.19-39.23,37.14-71.76,37.6-73.13l2.99-9-2.84-9.05Z"/>
</svg>