<?xml version="1.0" encoding="utf-8"?>
<!-- Generator: Adobe Illustrator 28.1.0, SVG Export Plug-In . SVG Version: 6.00 Build 0)  -->
<svg version="1.1" id="Layer_1" xmlns="http://www.w3.org/2000/svg" xmlns:xlink="http://www.w3.org/1999/xlink" x="0px" y="0px"
	 viewBox="0 0 629.8 500" style="enable-background:new 0 0 629.8 500;" xml:space="preserve">
<style type="text/css">
	.st0{fill:#D4D4D4;}
</style>
<path class="st0" d="M143.2,8.6c-11.5-11.5-30.1-11.5-41.6,0s-11.5,30.1,0,41.6L128.4,77C38.5,142.7,7.4,239.2,6.1,243.4l-2.9,9.2
	l3.2,9.2C7.1,264,82.7,476,316,479.8c63.5,0.8,120.4-14,170.4-44.7l56.3,56.3c5.7,5.7,13.3,8.6,20.8,8.6s15-2.9,20.8-8.6
	c11.5-11.5,11.5-30.1,0-41.6L143.2,8.6z M281,229.6l54.7,54.7c-5.9,3-12.5,4.5-19.2,4.5c-22.7,0-41.2-17.6-41.2-39.3
	C275.3,242.6,277.3,235.7,281,229.6L281,229.6z M317,421C149,418.2,81.4,288.4,65.6,251.9c9.7-23.9,40.7-89.2,104.9-132.7l68.4,68.4
	c-14.5,17.5-22.5,39.3-22.5,62c0,54.1,44.9,98.1,100,98.1c22.4,0,44.1-7.4,61.7-20.9l65.2,65.2C405.9,412,364.3,421.6,317,421
	L317,421z"/>
<path class="st0" d="M626.9,243.4c-0.7-2.2-73.4-225.8-310.4-225.8c-13,0-25.9,0.7-38.5,2c-16.1,1.7-27.8,16.2-26.1,32.4
	c1.8,16.1,16.4,28,32.4,26.1c10.3-1.1,21-1.7,32.1-1.7c170.4,0,236.2,137.7,251,175.4c-4.4,10.5-13.2,29.1-27.2,50.1
	c-9,13.5-5.4,31.8,8.1,40.8c5,3.4,10.7,5,16.3,5c9.5,0,18.8-4.6,24.5-13.1c26.2-39.2,37.1-71.8,37.6-73.1l3-9L626.9,243.4
	L626.9,243.4z"/>
</svg>
