<?xml version="1.0" encoding="UTF-8"?>
<svg id="Layer_1" data-name="Layer 1" xmlns="http://www.w3.org/2000/svg" viewBox="0 0 50 50">
  <defs>
    <style>
      .cls-1 {
        stroke-width: 0px;
      }
    </style>
  </defs>
  <path class="cls-1" d="M25,4c11.58,0,21,9.42,21,21s-9.42,21-21,21S4,36.58,4,25,13.42,4,25,4M25,0C11.19,0,0,11.19,0,25s11.19,25,25,25,25-11.19,25-25S38.81,0,25,0h0Z"/>
  <path class="cls-1" d="M21.1,30.18l-.04-1.13c-.13-2.22.61-4.48,2.57-6.83,1.39-1.65,2.53-3.04,2.53-4.53s-1-2.52-3.18-2.61c-1.44,0-3.18.52-4.31,1.31l-1.48-4.75c1.57-.91,4.18-1.79,7.27-1.79,5.75,0,8.36,3.18,8.36,6.79,0,3.31-2.05,5.49-3.7,7.31-1.61,1.79-2.26,3.48-2.22,5.44v.78h-5.79ZM19.97,36.19c0-2.31,1.61-3.96,3.87-3.96s3.87,1.66,3.92,3.96c0,2.26-1.57,3.96-3.92,3.96s-3.87-1.7-3.87-3.96Z"/>
</svg>