<?xml version="1.0" encoding="UTF-8"?>
<svg id="Layer_1" data-name="Layer 1" xmlns="http://www.w3.org/2000/svg" viewBox="0 0 51.69 51.64">
  <defs>
    <style>
      .cls-1, .cls-2 {
        stroke-width: 0px;
      }

      .cls-2 {
        fill: #fff;
      }
    </style>
  </defs>
  <g id="UmTseq.tif">
    <g>
      <path class="cls-1" d="M15.41,25.84c0,5.77,4.68,10.4,10.49,10.39,5.72-.01,10.39-4.7,10.4-10.43,0-5.76-4.69-10.43-10.47-10.42-5.79,0-10.42,4.66-10.41,10.46ZM2.47,25.78c-.24,1.9,1.47,3.53,3.36,3.53,2.03,0,3.52-1.57,3.52-3.52,0-1.82-1.34-3.45-3.47-3.48-2.09-.03-3.65,1.79-3.4,3.47ZM49.24,25.85c.13-2.05-1.45-3.55-3.42-3.54-2.08.01-3.53,1.5-3.5,3.52.03,2.12,1.45,3.42,3.47,3.47,1.9.05,3.52-1.42,3.44-3.45ZM42.29,12.83c.16-1.96-1.46-3.57-3.42-3.55-1.88.02-3.42,1.26-3.48,3.45-.05,1.94,1.55,3.58,3.45,3.57,1.91,0,3.61-1.66,3.45-3.46ZM42.3,38.86c.18-1.93-1.54-3.53-3.44-3.55-1.9-.01-3.48,1.58-3.47,3.48,0,2.14,1.62,3.52,3.48,3.55,1.85.02,3.57-1.54,3.43-3.47ZM9.31,12.75c0,1.92,1.61,3.55,3.51,3.55,1.87,0,3.47-1.61,3.47-3.49,0-2.03-1.53-3.55-3.5-3.52-1.95.03-3.37,1.35-3.48,3.47ZM16.29,38.93c.07-1.91-1.49-3.63-3.42-3.61-1.92.02-3.39,1.25-3.54,3.25-.16,2.17,1.39,3.68,3.41,3.76,1.77.07,3.48-1.3,3.55-3.4ZM29.29,45.78c.09-2.09-1.8-3.5-3.5-3.49-1.62.01-3.49,1.5-3.46,3.5.03,1.91,1.55,3.42,3.51,3.42,2.01,0,3.45-1.43,3.45-3.42ZM25.87,2.47c-2.14-.27-3.57,1.83-3.54,3.4.03,1.65,1.46,3.43,3.51,3.43,1.79,0,3.51-1.53,3.48-3.51-.03-1.71-1.46-3.54-3.45-3.32Z"/>
      <path class="cls-2" d="M15.41,25.84c0-5.8,4.62-10.46,10.41-10.46,5.78,0,10.48,4.67,10.47,10.42,0,5.73-4.68,10.41-10.4,10.43-5.8.01-10.48-4.62-10.49-10.39Z"/>
      <path class="cls-2" d="M2.47,25.78c-.24-1.68,1.31-3.51,3.4-3.47,2.13.03,3.46,1.66,3.47,3.48,0,1.95-1.49,3.52-3.52,3.52-1.88,0-3.6-1.63-3.36-3.53Z"/>
      <path class="cls-2" d="M49.24,25.85c.09,2.03-1.53,3.49-3.44,3.45-2.02-.05-3.44-1.35-3.47-3.47-.03-2.02,1.42-3.5,3.5-3.52,1.96-.01,3.55,1.49,3.42,3.54Z"/>
      <path class="cls-2" d="M42.29,12.83c.16,1.8-1.54,3.45-3.45,3.46-1.91,0-3.51-1.63-3.45-3.57.06-2.19,1.61-3.43,3.48-3.45,1.96-.02,3.58,1.59,3.42,3.55Z"/>
      <path class="cls-2" d="M42.3,38.86c.13,1.94-1.58,3.5-3.43,3.47-1.86-.02-3.48-1.41-3.48-3.55,0-1.89,1.58-3.49,3.47-3.48,1.9.01,3.61,1.62,3.44,3.55Z"/>
      <path class="cls-2" d="M9.31,12.75c.11-2.12,1.54-3.44,3.48-3.47,1.97-.03,3.5,1.5,3.5,3.52,0,1.89-1.6,3.49-3.47,3.49-1.9,0-3.51-1.63-3.51-3.55Z"/>
      <path class="cls-2" d="M16.29,38.93c-.07,2.1-1.78,3.48-3.55,3.4-2.02-.08-3.57-1.59-3.41-3.76.15-2,1.62-3.23,3.54-3.25,1.92-.02,3.49,1.69,3.42,3.61Z"/>
      <path class="cls-2" d="M29.29,45.78c0,1.99-1.44,3.42-3.45,3.42-1.96,0-3.48-1.5-3.51-3.42-.03-2,1.84-3.49,3.46-3.5,1.69-.01,3.58,1.4,3.5,3.49Z"/>
      <path class="cls-2" d="M25.87,2.47c1.99-.22,3.42,1.61,3.45,3.32.03,1.98-1.69,3.51-3.48,3.51-2.05,0-3.48-1.78-3.51-3.43-.03-1.56,1.4-3.66,3.54-3.4Z"/>
    </g>
  </g>
</svg>