<?xml version="1.0" encoding="utf-8"?>
<!-- Generator: Adobe Illustrator 28.1.0, SVG Export Plug-In . SVG Version: 6.00 Build 0)  -->
<svg version="1.1" id="Layer_1" xmlns="http://www.w3.org/2000/svg" xmlns:xlink="http://www.w3.org/1999/xlink" x="0px" y="0px"
	 viewBox="0 0 31.7 31.7" style="enable-background:new 0 0 31.7 31.7;" xml:space="preserve">
<style type="text/css">
	.st0{fill:#8247E5;}
	.st1{fill:#FFFFFF;}
</style>
<circle class="st0" cx="15.8" cy="15.8" r="15.8"/>
<g>
	<path class="st1" d="M21.2,12.2c-0.4-0.2-0.9-0.2-1.3,0l-3.1,1.8l-2.1,1.2l-3,1.8c-0.4,0.2-0.9,0.2-1.3,0L8,15.6
		c-0.4-0.2-0.7-0.7-0.7-1.2v-2.7c0-0.4,0.2-0.9,0.7-1.2l2.4-1.4c0.4-0.2,0.9-0.2,1.3,0l2.4,1.4c0.4,0.2,0.7,0.7,0.7,1.2v1.8l2.1-1.2
		v-1.9c0-0.4-0.2-0.9-0.7-1.2l-4.4-2.6c-0.4-0.2-0.9-0.2-1.3,0L6,9.4C5.5,9.6,5.3,10,5.3,10.5v5.2c0,0.4,0.2,0.9,0.7,1.2l4.4,2.6
		c0.4,0.2,0.9,0.2,1.3,0l3-1.8l2.1-1.2l3-1.8c0.4-0.2,0.9-0.2,1.3,0l2.4,1.4c0.4,0.2,0.7,0.7,0.7,1.2v2.7c0,0.4-0.2,0.9-0.7,1.2
		l-2.3,1.4c-0.4,0.2-0.9,0.2-1.3,0l-2.4-1.4c-0.4-0.2-0.7-0.7-0.7-1.2v-1.8l-2.1,1.2v1.8c0,0.4,0.2,0.9,0.7,1.2l4.4,2.6
		c0.4,0.2,0.9,0.2,1.3,0l4.4-2.6c0.4-0.2,0.7-0.7,0.7-1.2V16c0-0.4-0.2-0.9-0.7-1.2L21.2,12.2z"/>
</g>
</svg>
