<?xml version="1.0" encoding="UTF-8"?>
<svg id="Layer_1" data-name="Layer 1" xmlns="http://www.w3.org/2000/svg" viewBox="0 0 2500 2500">
  <defs>
    <style>
      .cls-1 {
        fill: #5a5564;
      }

      .cls-1, .cls-2, .cls-3, .cls-4 {
        fill-rule: evenodd;
        stroke-width: 0px;
      }

      .cls-2 {
        fill: #282138;
      }

      .cls-3 {
        fill: #fff;
      }

      .cls-4 {
        fill: #f09242;
      }
    </style>
  </defs>
  <g id="Layer_1-2" data-name="Layer_1">
    <g id="_1353706316224" data-name=" 1353706316224">
      <g id="Designs">
        <g id="Dashboard---Order-Book---Collapsed">
          <g id="Group-20">
            <g id="Group-6">
              <g id="Totals:-Network">
                <g id="icon-wbtc">
                  <path id="Fill-1" class="cls-3" d="M1250,.03C1940.25.03,2500,559.64,2500,1250.02s-559.75,1249.98-1250,1249.98S0,1940.26,0,1250.02,559.62.03,1250,.03h0Z"/>
                  <path id="Fill-3" class="cls-1" d="M2038.46,524.68l-68.62,68.62c339.48,371.39,339.48,940.26,0,1311.62l68.62,68.63c377.74-409.76,377.74-1040.74,0-1450.49v1.62h0Z"/>
                  <path id="Fill-5" class="cls-1" d="M594.66,530.67c371.25-339.51,940.26-339.51,1311.63,0l68.63-68.63c-409.76-377.87-1040.89-377.87-1450.51,0l70.25,68.63h0Z"/>
                  <path id="Fill-7" class="cls-1" d="M530.65,1905.52c-339.14-371.12-339.14-939.61,0-1310.87l-68.63-68.62c-377.87,409.75-377.87,1040.73,0,1450.38l68.63-70.89Z"/>
                  <path id="Fill-9" class="cls-1" d="M1905.51,1968.88c-371.23,339.64-940.24,339.64-1311.5,0l-68.74,68.76c409.73,377.73,1040.86,377.73,1450.48,0l-70.24-68.76Z"/>
                  <path id="Fill-11" class="cls-4" d="M1458.01,1075.21c0,137.25-214.62,120.62-282.87,120.62v-241.86c68.25,0,282.87-21.51,282.87,121.24h0ZM1514,1450.71c0,150.02-257.12,132.87-339.1,132.87v-266.24c81.98.11,339.1-23.37,339.1,133.37h0ZM1683.38,1020.98c-13.74-143.27-137.25-191.27-293.62-206.01v-197.37h-120.75v193.62c-31.86,0-64.26,0-96.63.99v-194.61h-120.13v198.61h-244.72v129.26s89.22-1.62,87.87,0c33.37-3.62,63.74,19.87,68.63,53.13v543.87c-.76,11.36-6.02,22-14.53,29.61-8.61,7.37-19.87,11.13-31.23,10.5,1.48,1.25-87.88,0-87.88,0l-24,144.25h243.86v201.88h120.89v-198.86h96.49v197.86h121v-199.37c204.12-12.5,346.5-62.74,364.27-253.88,14.49-153.74-57.89-222.37-173.38-250.12,70.25-35.63,114.36-98.62,103.86-203.36Z"/>
                  <g id="Fill-13">
                    <path class="cls-2" d="M1249.76,97.51c-636.02.35-1151.25,516.12-1151.14,1152.1.13,636.01,515.74,1151.51,1151.76,1151.51,635.99.1,1151.76-515.39,1152-1151.37-.89-636.01-516.5-1151.37-1152.62-1151.62v-.62h0ZM1249.76,2499.98C559.51,2499.87-.13,1940.23,0,1249.99,0,559.61,559.62.14,1249.87,0,1940.12,0,2499.87,559.5,2500,1249.75c-.76,690.24-560.13,1249.47-1250.24,1250.23Z"/>
                  </g>
                </g>
              </g>
            </g>
          </g>
        </g>
      </g>
    </g>
  </g>
</svg>