<svg width="512" height="512" viewBox="0 0 512 512" fill="none" xmlns="http://www.w3.org/2000/svg">
<path d="M217.349 2.21721C223.172 1.41424 229.496 0.410533 231.404 0.209792C233.311 0.00905042 246.162 -0.0913203 260.016 0.109421C280.496 0.310163 287.322 0.812016 297.161 2.51832C303.787 3.72277 313.525 5.83055 318.745 7.13537C323.966 8.44019 333.603 11.3509 340.028 13.6595C346.554 15.8676 356.693 19.8825 362.617 22.4921C368.64 25.1017 378.88 30.5217 385.506 34.4362C392.132 38.3507 401.368 44.3729 406.086 47.7855C410.805 51.2985 417.531 56.6181 421.145 59.6292C424.759 62.7407 430.984 68.3615 434.999 72.276C439.115 76.1904 445.942 83.4171 450.158 88.4356C454.475 93.3538 460.8 101.283 464.314 106.001C467.727 110.718 473.751 119.952 477.666 126.577C481.581 133.201 487.002 143.439 489.613 149.361C492.223 155.383 496.238 165.52 498.547 171.944C500.756 178.468 503.868 189.007 505.475 195.33C506.98 201.654 509.089 211.791 510.093 217.914C511.598 226.746 512 234.274 512 256.055C512 277.835 511.598 285.363 510.093 294.196C509.089 300.318 506.98 310.456 505.475 316.779C503.868 323.102 500.756 333.641 498.547 340.065C496.238 346.589 492.223 356.727 489.613 362.648C487.002 368.671 481.581 378.908 477.666 385.533C473.751 392.157 467.727 401.391 464.314 406.109C460.8 410.826 455.479 417.551 452.467 421.165C449.355 424.778 443.733 431.001 439.818 435.016C435.903 439.131 428.574 445.956 423.655 450.172C418.736 454.488 410.805 460.811 406.086 464.324C401.368 467.737 392.132 473.759 385.506 477.673C378.88 481.588 368.64 487.008 362.617 489.617C356.693 492.227 346.554 496.242 340.028 498.55C333.603 500.758 323.062 503.87 316.737 505.476C310.413 506.981 300.273 509.089 294.149 510.093C285.315 511.599 277.785 512 256 512C234.215 512 226.686 511.599 217.851 510.093C211.727 509.089 201.587 506.981 195.263 505.476C188.938 503.87 178.296 500.758 171.671 498.45C165.045 496.141 154.403 491.926 148.078 489.015C141.754 486.104 134.224 482.391 131.514 480.684C128.703 479.078 126.394 477.071 126.193 476.268C125.992 475.064 132.216 474.963 169.864 475.264C194.058 475.465 229.195 475.064 247.969 474.461C266.742 473.859 287.423 472.956 293.948 472.354C300.373 471.852 311.015 470.246 317.44 468.841C323.966 467.435 334.005 464.625 339.827 462.718C345.65 460.811 355.589 456.696 361.914 453.685C368.238 450.673 376.872 446.056 380.988 443.547C385.104 440.938 392.835 435.718 398.055 431.904C403.275 427.99 413.013 419.358 419.74 412.733C426.366 406.009 434.999 396.273 438.915 391.053C442.729 385.834 447.95 378.105 450.56 373.99C453.07 369.875 457.688 361.243 460.7 354.92C463.711 348.596 467.827 338.66 469.735 332.838C471.642 327.017 474.253 317.983 475.357 312.764C476.562 307.545 478.168 298.512 478.971 292.69C479.674 286.869 480.376 275.226 480.376 266.794C480.376 258.464 479.674 246.218 478.871 239.694C477.967 233.271 475.959 222.732 474.453 216.408C472.847 210.085 469.835 200.349 467.827 194.829C465.719 189.308 461.302 179.372 457.989 172.747C454.576 166.123 448.954 156.387 445.44 151.167C441.926 145.948 435.903 138.019 432.289 133.602C428.574 129.186 419.94 120.354 413.114 114.03C406.56 108.048 396.771 98.7409 390.549 92.825L389.522 91.8482C383.498 86.0267 374.362 77.696 369.443 73.2797C364.424 68.9637 355.187 61.4359 348.863 56.6181C342.538 51.9007 333.001 45.7781 327.78 43.1685C322.56 40.5588 314.428 36.9455 309.71 35.1388C304.991 33.3321 297.06 30.7225 292.141 29.2169C287.222 27.8117 278.187 25.704 272.063 24.5999C264.533 23.0943 254.996 22.2913 241.945 21.9902C227.589 21.5888 219.658 21.8899 209.82 23.0943C202.591 23.9977 191.548 26.0051 185.224 27.611C178.899 29.2169 169.161 32.228 163.639 34.2355C158.118 36.3432 149.082 40.2577 143.561 43.0681C138.039 45.7781 130.108 50.1944 125.992 52.7037C121.876 55.3133 114.648 60.3318 109.929 63.8448C105.211 67.3578 96.9788 74.5845 91.4573 79.9041C86.0361 85.1234 78.7075 93.0527 75.0933 97.469C71.5796 101.885 65.9576 109.513 62.6447 114.532C59.3318 119.45 54.011 128.785 50.7984 135.108C47.5859 141.431 43.269 151.167 41.1608 156.688C39.1529 162.208 36.1412 171.944 34.5349 178.267C32.9286 184.591 30.9208 195.632 30.0173 202.858C28.8125 212.695 28.5114 220.624 28.9129 234.977C29.2141 246.118 30.1176 257.761 31.1216 263.081C32.0251 267.999 33.8322 276.731 35.2376 282.352C36.8439 289.378 39.4541 296.203 43.0682 303.43C45.9796 309.452 51.702 319.89 55.7177 326.816C59.7333 333.742 66.56 344.582 70.7765 350.905C75.0933 357.228 81.92 366.764 85.9357 371.983C90.0518 377.202 96.1757 384.529 99.589 388.243C103.304 392.258 105.412 395.269 104.709 395.47C104.006 395.67 96.8784 397.377 88.8471 399.284C80.5145 401.291 70.1741 404.603 64.7529 407.113C59.5326 409.421 54.5129 411.529 53.7098 411.83C52.7059 412.098 50.2965 409.622 46.4816 404.403C43.3694 400.087 38.0486 391.856 34.5349 386.035C31.1216 380.213 25.9012 370.277 22.9898 363.953C20.0784 357.63 15.862 346.991 13.5529 340.366C11.2439 333.742 8.13177 323.102 6.52549 316.779C5.01961 310.456 2.91137 300.318 1.90745 294.196C0.401569 285.363 0 277.835 0 256.055C0 234.274 0.401569 226.746 1.90745 217.914C2.91137 211.791 5.01961 201.654 6.52549 195.33C8.13177 189.007 11.2439 178.468 13.4525 171.944C15.7616 165.52 19.7773 155.383 22.3875 149.361C24.9976 143.439 30.4188 133.201 34.3341 126.577C38.2494 119.952 44.2729 110.718 47.6863 106.001C51.2 101.283 56.5208 94.5583 59.5326 90.9449C62.6447 87.3316 68.2667 81.1086 72.182 77.0938C76.0973 72.9785 83.3255 66.1533 88.3451 61.9378C93.3647 57.6218 101.195 51.2985 105.914 47.7855C110.632 44.3729 119.868 38.3507 126.494 34.4362C133.12 30.5217 143.36 25.1017 149.384 22.4921C155.307 19.8825 165.446 15.8676 171.871 13.5591C178.397 11.3509 188.938 8.23945 195.263 6.63352C201.587 5.12796 211.526 3.12054 217.349 2.21721Z" fill="white"/>
<path d="M185.224 27.611C191.548 26.0051 201.487 24.098 207.31 23.295C214.739 22.191 224.176 21.8899 239.435 22.0906C256 22.3917 263.63 22.9939 272.063 24.4995C278.187 25.7039 287.222 27.8117 292.141 29.2169C297.06 30.7225 304.991 33.3321 309.71 35.1388C314.428 36.9455 322.56 40.5588 327.78 43.1684C333.001 45.7781 342.538 51.9007 348.863 56.6181C355.187 61.4359 364.423 68.9637 369.443 73.2797C374.362 77.696 383.498 86.0267 389.522 91.8482L390.547 92.8235C396.77 98.7393 406.559 108.047 413.114 114.03C419.94 120.354 428.574 129.186 432.289 133.602C435.903 138.019 441.926 145.948 445.44 151.167C448.954 156.387 454.576 166.123 457.989 172.747C461.302 179.371 465.719 189.308 467.827 194.829C469.835 200.349 472.847 210.085 474.453 216.408C475.959 222.732 477.967 233.271 478.871 239.795C479.674 246.218 480.376 258.464 480.376 266.895C480.376 275.226 479.674 286.869 478.971 292.69C478.168 298.512 476.562 307.545 475.357 312.764C474.253 317.983 471.642 327.017 469.735 332.838C467.827 338.66 463.711 348.597 460.7 354.92C457.688 361.243 453.07 369.875 450.56 373.99C447.95 378.105 442.729 385.834 438.914 391.053C434.999 396.273 426.365 406.009 419.74 412.733C413.013 419.358 403.275 427.99 398.055 431.904C392.834 435.718 385.104 440.938 380.988 443.547C376.872 446.056 368.238 450.674 361.914 453.685C355.589 456.696 345.65 460.811 339.827 462.718C334.005 464.625 323.965 467.435 317.54 468.841C311.015 470.246 300.373 471.751 293.948 472.354C287.423 472.855 268.348 473.859 251.482 474.361C234.616 474.963 199.178 475.365 172.674 475.264L172.648 475.264C124.587 475.064 124.485 475.063 119.969 472.755C117.459 471.45 109.829 466.131 102.902 461.012C95.9749 455.792 85.4337 446.859 79.4102 441.138C73.3866 435.417 65.1545 426.585 61.0384 421.666C56.9223 416.748 53.9106 412.332 54.4125 411.93C54.8141 411.529 59.5325 409.321 64.7529 407.012C69.9733 404.704 80.8157 401.291 88.847 399.284C96.8784 397.377 104.006 395.67 104.709 395.47C105.412 395.269 103.304 392.258 99.589 388.343C96.1757 384.529 90.0517 377.202 85.9357 371.983C81.92 366.764 75.0933 357.228 70.7764 350.905C66.56 344.582 59.7333 333.742 55.7176 326.816C51.7019 319.891 45.9796 309.452 43.0682 303.43C39.4541 296.203 36.8439 289.378 35.2376 282.452C33.8321 276.731 32.0251 267.999 31.1215 263.081C30.1176 257.761 29.2141 246.118 28.9129 234.977C28.5114 220.624 28.8125 212.695 30.0172 202.858C30.9208 195.632 32.9286 184.591 34.5349 178.267C36.1412 171.944 39.1529 162.208 41.1608 156.688C43.269 151.167 47.5859 141.431 50.7984 135.108C54.011 128.785 59.3317 119.551 62.6447 114.532C65.9576 109.513 71.5796 101.885 75.0933 97.469C78.7074 93.0527 86.0361 85.1234 91.4572 79.9041C96.9788 74.5845 105.211 67.3578 109.929 63.8448C114.648 60.3318 121.876 55.3133 125.992 52.7037C130.108 50.1944 138.039 45.7781 143.561 43.0681C149.082 40.2577 158.118 36.3432 163.639 34.2355C169.161 32.228 178.899 29.2169 185.224 27.611Z" fill="black"/>
<path d="M201.788 43.1684C206.707 42.2651 215.14 41.161 220.361 40.7596C225.581 40.3581 231.705 39.9566 233.914 39.9566C236.122 39.8562 243.351 40.2577 249.976 40.7596C256.602 41.3618 266.742 42.6666 272.565 43.871C278.387 45.0755 288.326 47.6851 294.651 49.7929C300.976 51.9007 310.513 55.6144 315.733 58.1237C320.954 60.5326 326.174 63.343 327.278 64.1459C328.383 64.9489 329.085 65.9526 328.784 66.1533C328.483 66.4545 324.668 65.8522 320.251 64.7481C315.834 63.7444 307.401 62.1385 301.478 61.3355C295.253 60.4322 283.307 59.83 273.569 59.83C263.429 59.83 251.884 60.4322 245.258 61.4359C239.034 62.3393 228.994 64.2463 222.871 65.7519C216.747 67.3578 207.711 70.0678 202.792 71.8745C197.873 73.6811 188.838 77.4952 182.714 80.406C176.59 83.3167 166.751 88.9375 160.627 92.9523C154.503 96.9671 145.97 103.291 141.553 107.004C137.136 110.718 129.807 117.543 125.289 122.16C120.772 126.777 114.849 133.301 112.138 136.614C109.427 139.926 103.906 147.554 99.8902 153.677C95.8745 159.799 90.2525 169.636 87.3411 175.758C84.4298 181.881 81.0164 189.71 79.7113 193.323C78.5066 196.936 77.2015 200.249 76.9004 200.65C76.5992 201.152 70.7764 198.743 64.0502 195.431C55.3161 191.115 51.7019 188.806 51.7019 187.602C51.7019 186.598 53.007 181.178 54.7137 175.457C56.32 169.836 59.6329 160.803 61.9419 155.483C64.251 150.063 68.1662 142.034 70.5757 137.617C73.0855 133.201 77.6031 125.874 80.7153 121.357C83.8274 116.841 89.5498 109.513 93.3647 104.896C97.1796 100.38 104.709 92.8519 109.929 88.2349C115.15 83.5175 124.486 76.3912 130.51 72.3763C136.634 68.3615 145.669 63.0418 150.588 60.5326C155.507 58.0233 163.037 54.6107 167.153 53.0048C171.269 51.2985 178.798 48.7892 183.718 47.384C188.637 45.9788 196.869 44.0718 201.788 43.1684Z" fill="#EC1C79"/>
<path d="M47.2847 236.884C46.8831 235.278 46.7827 229.155 47.1843 223.234V223.133C47.5859 217.211 48.2886 212.393 48.7906 212.393C49.2925 212.393 54.3121 214.702 60.0345 217.512C65.6564 220.323 70.3749 222.732 70.4753 222.832C70.6761 222.832 70.0737 227.65 69.1702 233.471C68.2666 239.293 67.3631 245.014 67.1623 246.218C66.7691 248.479 66.6647 248.43 58.0819 244.374L57.5247 244.111C49.7945 240.497 47.9874 239.192 47.2847 236.884Z" fill="#EC1C79"/>
<path d="M53.3082 276.731C51.9027 270.91 50.698 265.891 50.698 265.389C50.698 264.988 50.7984 264.687 50.9992 264.687C51.0996 264.687 54.6133 266.192 66.2588 271.512L66.9615 281.95C67.3631 287.571 68.367 296.303 69.2706 301.322C70.1741 306.24 71.0776 311.459 71.8808 315.374L69.7725 312.865C68.5678 311.459 64.9537 305.136 61.7411 298.813C57.6251 290.683 55.1153 284.159 53.3082 276.731Z" fill="#EC1C79"/>
<path d="M237.427 81.8112C243.25 80.6067 252.486 79.4023 258.008 78.9004C263.529 78.4989 269.653 78.0975 271.561 78.0975C273.468 77.9971 280.496 78.3986 287.122 78.9004C293.747 79.4023 304.088 80.8075 310.212 82.0119C316.336 83.116 325.973 85.6253 331.796 87.5323C337.619 89.4393 347.959 93.7553 354.886 97.0675C361.813 100.38 372.355 106.402 378.478 110.517C384.602 114.632 393.437 121.458 398.256 125.774C402.974 130.089 410.403 137.417 414.62 142.134C418.836 146.851 425.663 155.584 429.678 161.706C433.694 167.829 439.115 176.862 441.525 181.78C444.035 186.699 447.749 195.029 449.656 200.148C451.664 205.167 454.375 213.799 455.78 219.118C457.086 224.538 458.993 233.672 459.896 239.494C460.8 245.917 461.503 256.557 461.503 266.594C461.503 276.631 460.8 287.27 459.896 293.694C458.993 299.515 457.086 308.749 455.58 314.27C454.174 319.79 451.464 328.422 449.556 333.34C447.649 338.258 443.432 347.593 440.119 353.916C436.806 360.24 431.285 369.373 427.871 374.191C424.458 379.009 418.234 386.737 414.118 391.555C410.002 396.273 402.874 403.399 398.256 407.414C393.638 411.429 386.008 417.451 381.189 420.863C376.37 424.276 367.235 429.796 360.91 433.109C354.585 436.421 345.249 440.636 340.329 442.543C335.41 444.451 326.776 447.161 321.255 448.566C315.733 450.071 306.698 451.878 301.176 452.781C295.253 453.685 284.311 454.287 274.573 454.287C265.236 454.287 253.39 453.584 247.467 452.781C241.644 451.878 232.408 450.071 226.886 448.666C221.365 447.261 212.53 444.551 207.31 442.543C202.089 440.636 194.158 437.123 189.741 434.915C185.324 432.707 178.096 428.692 173.678 425.882C169.261 423.172 162.936 418.856 159.624 416.246C156.311 413.737 150.689 409.02 147.075 405.707C143.46 402.496 137.035 395.971 132.718 391.154C128.301 386.436 121.475 377.604 117.459 371.481C113.343 365.358 107.319 354.819 104.006 347.894C100.693 340.968 96.3765 330.63 94.469 324.809C92.5616 318.987 90.0518 309.352 88.9474 303.229C87.7427 297.106 86.3372 286.467 85.8353 279.341C85.1325 271.11 85.1325 261.876 85.8353 253.345C86.3372 246.018 87.7427 235.278 88.9474 229.456C90.0518 223.635 92.7623 213.698 94.8706 207.375C96.9788 201.052 100.493 192.018 102.701 187.301C104.809 182.583 108.725 175.156 111.435 170.74C114.045 166.323 119.467 158.394 123.382 153.175C127.297 147.955 135.027 139.123 140.549 133.602C146.071 128.082 154.905 120.354 160.125 116.439C165.346 112.525 173.478 107.004 178.196 104.194C182.915 101.383 191.247 97.0675 196.769 94.6586C202.29 92.1494 211.325 88.7367 216.847 87.0304C222.369 85.3241 231.605 83.0156 237.427 81.8112Z" fill="white"/>
<path d="M149.886 251.337C153.399 240.698 156.411 231.364 156.712 230.661C157.013 229.758 159.423 229.456 174.682 229.958L181.71 250.835C185.625 262.278 188.938 271.612 189.239 271.612C189.54 271.612 192.452 262.478 201.788 230.962L212.631 230.761C220.863 230.561 223.272 230.761 222.971 231.765C222.77 232.367 217.249 249.129 198.776 304.735L180.706 304.835L175.285 289.478C172.273 281.047 168.96 271.612 167.956 268.601C166.852 265.59 165.647 263.583 165.246 264.084C164.844 264.687 161.431 274.021 151.09 304.735H132.518L108.223 230.962L118.864 230.761C124.687 230.561 129.606 230.561 129.707 230.761C129.807 230.862 132.518 239.694 135.73 250.434C138.943 261.174 141.955 270.107 142.557 270.307C143.159 270.508 146.372 261.876 149.886 251.337Z" fill="black"/>
<path d="M231.404 304.735V267.597V230.46H291.639V247.523H252.486V258.564H287.624V275.627H252.486V286.668L292.141 287.17V304.233L231.404 304.735Z" fill="black"/>
<path d="M298.667 248.527V239.494V230.46H363.922V248.527H341.835V304.735H320.753V248.527H298.667Z" fill="black"/>
<path d="M372.957 304.735V267.597V230.46H394.039V257.56H420.141V230.46H441.224L440.722 304.233L420.141 304.735V276.631H394.039L393.537 304.233L372.957 304.735Z" fill="black"/>
</svg>
