<?xml version="1.0" encoding="UTF-8"?>
<svg id="Layer_1" data-name="Layer 1" xmlns="http://www.w3.org/2000/svg" viewBox="0 0 170.42 113.04">
  <defs>
    <style>
      .cls-1 {
        fill: #fff;
      }

      .cls-1, .cls-2 {
        stroke-width: 0px;
      }

      .cls-2 {
        fill: #e86500;
      }
    </style>
  </defs>
  <g>
    <polygon class="cls-2" points="104.87 46.21 101.59 40.43 98.32 34.66 95.04 28.88 91.76 23.1 88.49 17.33 85.21 11.55 81.93 5.78 78.65 0 75.38 5.78 72.1 11.55 68.82 17.33 65.55 23.1 62.27 28.88 58.99 34.66 55.71 40.43 52.44 46.21 49.16 51.99 45.88 57.76 52.44 57.76 58.99 57.76 62.27 51.99 65.55 46.21 68.82 40.43 72.1 34.66 75.38 28.88 78.65 23.1 81.93 28.88 85.21 34.66 91.76 46.21 85.21 46.21 78.65 46.21 78.65 57.76 85.21 57.76 91.76 57.76 98.32 57.76 104.87 57.76 111.43 57.76 108.15 51.99 104.87 46.21"/>
    <polygon class="cls-1" points="163.86 0 157.31 0 154.03 5.78 150.75 11.55 147.48 17.33 144.2 23.1 140.92 28.88 137.64 34.66 134.37 28.88 131.09 23.1 127.81 17.33 124.53 11.55 121.26 5.78 117.98 0 111.43 0 104.87 0 108.15 5.78 111.43 11.55 114.7 17.33 117.98 23.1 121.26 28.88 124.53 34.66 127.81 40.43 131.09 46.21 134.37 51.99 137.64 57.76 140.92 51.99 144.2 46.21 147.48 40.43 150.75 34.66 154.03 28.88 157.31 23.1 160.58 17.33 163.86 11.55 167.14 5.78 170.42 0 163.86 0"/>
    <polygon class="cls-1" points="19.66 11.55 26.22 11.55 32.77 11.55 39.33 11.55 45.88 11.55 49.16 5.78 52.44 0 45.88 0 39.33 0 32.77 0 26.22 0 19.66 0 13.11 0 6.56 0 0 0 0 11.55 0 23.1 0 34.66 0 46.21 0 57.76 6.56 57.76 13.11 57.76 13.11 46.21 13.11 34.66 19.66 34.66 26.22 34.66 32.77 34.66 36.05 28.88 39.33 23.1 32.77 23.1 26.22 23.1 19.66 23.1 13.11 23.1 13.11 11.55 19.66 11.55"/>
  </g>
  <g>
    <path class="cls-1" d="M3.22,99.85H-.17v-1.21h8.25v1.21h-3.41v9.92h-1.45v-9.92Z"/>
    <path class="cls-1" d="M9.41,104.27c0-.94-.02-1.75-.07-2.49h1.27l.06,1.57h.05c.37-1.07,1.25-1.75,2.23-1.75.16,0,.27,0,.4.04v1.37c-.15-.03-.29-.04-.49-.04-1.02,0-1.75.77-1.95,1.86-.04.2-.06.44-.06.68v4.27h-1.45v-5.5Z"/>
    <path class="cls-1" d="M20.06,109.77l-.13-1.01h-.04c-.44.62-1.3,1.19-2.45,1.19-1.61,0-2.44-1.15-2.44-2.29,0-1.94,1.72-3,4.8-2.98v-.17c0-.65-.18-1.85-1.82-1.84-.74,0-1.52.22-2.08.6l-.33-.97c.66-.43,1.63-.7,2.64-.7,2.44,0,3.04,1.67,3.04,3.27v2.99c0,.68.03,1.36.12,1.91h-1.31ZM19.84,105.69c-1.57-.03-3.37.25-3.37,1.79,0,.95.63,1.39,1.36,1.39,1.05,0,1.72-.66,1.95-1.34.05-.15.07-.32.07-.46v-1.39Z"/>
    <path class="cls-1" d="M31.39,98.04v9.67c0,.71.03,1.51.07,2.06h-1.29l-.07-1.38h-.04c-.44.89-1.41,1.56-2.71,1.56-1.94,0-3.43-1.64-3.43-4.06-.01-2.67,1.65-4.29,3.59-4.29,1.23,0,2.05.58,2.41,1.21h.03v-4.77h1.44ZM29.94,105.03c0-.19-.02-.43-.06-.62-.23-.92-1.01-1.67-2.1-1.67-1.51,0-2.41,1.32-2.41,3.08,0,1.62.81,2.97,2.38,2.97.97,0,1.86-.66,2.12-1.75.05-.19.07-.4.07-.62v-1.38Z"/>
    <path class="cls-1" d="M35.52,106.04c.03,1.96,1.28,2.77,2.74,2.77,1.04,0,1.68-.19,2.21-.41l.25,1.03c-.51.23-1.4.51-2.67.51-2.46,0-3.93-1.64-3.93-4.03s1.43-4.31,3.76-4.31c2.61,0,3.29,2.29,3.29,3.76,0,.31-.02.52-.05.68h-5.6ZM39.77,104.99c.01-.92-.37-2.35-2-2.35-1.48,0-2.12,1.34-2.23,2.35h4.24Z"/>
    <path class="cls-1" d="M50.02,99.48v2.3h2.09v1.1h-2.09v4.31c0,1,.29,1.56,1.1,1.56.38,0,.65-.05.84-.11l.07,1.1c-.28.11-.73.2-1.3.2-.67,0-1.22-.22-1.57-.62-.4-.44-.56-1.15-.56-2.08v-4.36h-1.24v-1.1h1.24v-1.92l1.42-.38Z"/>
    <path class="cls-1" d="M61.77,105.7c0,2.96-2.05,4.25-3.97,4.25-2.17,0-3.84-1.58-3.84-4.12,0-2.67,1.76-4.24,3.97-4.24s3.85,1.67,3.85,4.1ZM55.43,105.79c0,1.75,1,3.07,2.42,3.07s2.44-1.3,2.44-3.12c0-1.35-.68-3.06-2.41-3.06s-2.45,1.59-2.45,3.11Z"/>
    <path class="cls-1" d="M65.94,105.44h.03c.19-.28.47-.63.7-.91l2.36-2.75h1.75l-3.09,3.29,3.52,4.71h-1.77l-2.75-3.84-.74.83v3.01h-1.44v-11.73h1.44v7.41Z"/>
    <path class="cls-1" d="M73.97,106.04c.03,1.96,1.28,2.77,2.74,2.77,1.04,0,1.68-.19,2.21-.41l.25,1.03c-.51.23-1.4.51-2.67.51-2.46,0-3.93-1.64-3.93-4.03s1.43-4.31,3.76-4.31c2.61,0,3.29,2.29,3.29,3.76,0,.31-.02.52-.05.68h-5.6ZM78.23,104.99c.01-.92-.37-2.35-2-2.35-1.48,0-2.12,1.34-2.23,2.35h4.24Z"/>
    <path class="cls-1" d="M82.33,103.94c0-.83-.03-1.5-.07-2.16h1.28l.08,1.31h.04c.39-.75,1.32-1.5,2.64-1.5,1.1,0,2.82.66,2.82,3.41v4.77h-1.45v-4.61c0-1.29-.49-2.37-1.85-2.37-.95,0-1.7.68-1.96,1.49-.06.18-.1.43-.1.67v4.82h-1.45v-5.83Z"/>
    <path class="cls-1" d="M92.19,108.29c.44.27,1.2.57,1.93.57,1.06,0,1.55-.52,1.55-1.19s-.42-1.07-1.48-1.46c-1.44-.52-2.13-1.31-2.12-2.27,0-1.29,1.05-2.34,2.76-2.34.81,0,1.51.22,1.96.49l-.36,1.06c-.31-.19-.89-.47-1.64-.47-.86,0-1.32.49-1.32,1.1,0,.66.47.96,1.52,1.36,1.38.51,2.09,1.21,2.1,2.4,0,1.42-1.1,2.41-2.99,2.41-.88,0-1.68-.23-2.25-.56l.35-1.1Z"/>
    <path class="cls-1" d="M104.37,109.77v-6.89h-1.12v-1.1h1.12v-.38c0-1.13.26-2.15.93-2.8.54-.53,1.28-.74,1.94-.74.53,0,.96.11,1.24.23l-.19,1.12c-.22-.1-.51-.18-.93-.18-1.23,0-1.55,1.09-1.55,2.32v.43h1.93v1.1h-1.92v6.89h-1.45Z"/>
    <path class="cls-1" d="M116.97,105.7c0,2.96-2.05,4.25-3.97,4.25-2.17,0-3.84-1.58-3.84-4.12,0-2.67,1.76-4.24,3.97-4.24s3.85,1.67,3.85,4.1ZM110.63,105.79c0,1.75,1,3.07,2.42,3.07s2.44-1.3,2.44-3.12c0-1.35-.68-3.06-2.41-3.06s-2.45,1.59-2.45,3.11Z"/>
    <path class="cls-1" d="M119.7,104.27c0-.94-.02-1.75-.07-2.49h1.27l.06,1.57h.05c.37-1.07,1.25-1.75,2.23-1.75.16,0,.27,0,.4.04v1.37c-.15-.03-.29-.04-.49-.04-1.02,0-1.75.77-1.95,1.86-.04.2-.06.44-.06.68v4.27h-1.45v-5.5Z"/>
    <path class="cls-1" d="M130.39,104.38c0-1.02-.03-1.85-.07-2.6h1.3l.08,1.36h.03c.58-.97,1.54-1.54,2.84-1.54,1.93,0,3.39,1.63,3.39,4.06,0,2.88-1.76,4.3-3.63,4.3-1.07,0-1.99-.46-2.46-1.26h-.03v4.35h-1.44v-8.66ZM131.84,106.52c0,.21.02.41.06.59.26,1.02,1.14,1.7,2.17,1.7,1.54,0,2.43-1.26,2.43-3.1,0-1.59-.84-2.97-2.37-2.97-.99,0-1.92.7-2.2,1.79-.05.19-.09.4-.09.59v1.38Z"/>
    <path class="cls-1" d="M140.69,104.27c0-.94-.02-1.75-.07-2.49h1.27l.06,1.57h.05c.37-1.07,1.25-1.75,2.23-1.75.16,0,.27,0,.4.04v1.37c-.15-.03-.29-.04-.49-.04-1.02,0-1.75.77-1.95,1.86-.04.2-.06.44-.06.68v4.27h-1.45v-5.5Z"/>
    <path class="cls-1" d="M154.06,105.7c0,2.96-2.05,4.25-3.97,4.25-2.17,0-3.84-1.58-3.84-4.12,0-2.67,1.76-4.24,3.97-4.24s3.85,1.67,3.85,4.1ZM147.72,105.79c0,1.75,1,3.07,2.42,3.07s2.44-1.3,2.44-3.12c0-1.35-.68-3.06-2.41-3.06s-2.45,1.59-2.45,3.11Z"/>
    <path class="cls-1" d="M156.93,109.77v-6.89h-1.12v-1.1h1.12v-.44c0-2.1,1.24-3.48,3.49-3.48.75,0,1.62.23,2.03.53l-.41,1.1c-.36-.24-.98-.46-1.69-.46-1.53,0-1.99,1.08-1.99,2.36v.4h4.65v7.99h-1.45v-6.89h-3.2v6.89h-1.45Z"/>
    <path class="cls-1" d="M168.07,99.48v2.3h2.09v1.1h-2.09v4.31c0,1,.29,1.56,1.1,1.56.38,0,.65-.05.84-.11l.07,1.1c-.28.11-.73.2-1.3.2-.67,0-1.22-.22-1.57-.62-.4-.44-.56-1.15-.56-2.08v-4.36h-1.24v-1.1h1.24v-1.92l1.42-.38Z"/>
  </g>
  <path class="cls-1" d="M0,84.72l4.47-3.16.54.14c.83,1.05,1.99,1.62,3.25,1.62.94,0,1.51-.28,1.51-.77,0-.6-.48-.88-3.79-2.28-3.62-1.51-4.98-3.27-4.98-6.43,0-3.53,3.44-6.24,7.89-6.24,3.3,0,6.12,1.37,7.97,3.9l-4.47,3.36-.54-.11c-.71-.97-1.77-1.59-2.88-1.59-.8,0-1.17.28-1.17.71,0,.46.17.63,3.79,2.14,3.56,1.48,5.01,3.33,5.01,5.84,0,4.1-3.47,7-8.31,7-3.42,0-6.43-1.48-8.28-4.13Z"/>
  <path class="cls-1" d="M40.15,88.85l-6.27-21.24h7.74l1.68,9.24c.18.93.39,2.31.54,4.23h.06c.21-1.68.39-2.88.69-4.26l2.04-9.21h5.22l2.04,9.21c.3,1.38.48,2.58.69,4.26h.06c.15-1.92.36-3.3.54-4.23l1.68-9.24h7.74l-6.27,21.24h-6.72l-1.62-7.32c-.21-.96-.45-2.1-.72-3.54h-.06c-.27,1.44-.51,2.58-.72,3.54l-1.62,7.32h-6.72Z"/>
  <path class="cls-1" d="M93.97,88.85l-.69-2.7h-5.79l-.69,2.7h-8.28l7.65-21.24h8.58l7.5,21.24h-8.28ZM88.78,81.05h3.15l-.57-2.22c-.3-1.14-.72-3.12-.93-5.19h-.15c-.21,2.07-.63,4.05-.93,5.19l-.57,2.22Z"/>
  <path class="cls-1" d="M119.17,88.85v-21.24h8.43c5.97,0,8.88,2.61,8.88,7.53,0,4.53-2.79,7.29-7.83,7.29h-2.4v6.42h-7.08ZM126.28,77.09h1.23c1.44,0,2.25-.66,2.25-1.95,0-1.41-.81-2.04-2.25-2.04h-1.23v3.99Z"/>
  <path class="cls-1" d="M153.56,84.72l4.47-3.16.54.14c.83,1.05,1.99,1.62,3.25,1.62.94,0,1.51-.28,1.51-.77,0-.6-.48-.88-3.79-2.28-3.62-1.51-4.98-3.27-4.98-6.43,0-3.53,3.44-6.24,7.89-6.24,3.3,0,6.12,1.37,7.97,3.9l-4.47,3.36-.54-.11c-.71-.97-1.77-1.59-2.88-1.59-.8,0-1.17.28-1.17.71,0,.46.17.63,3.79,2.14,3.56,1.48,5.01,3.33,5.01,5.84,0,4.1-3.47,7-8.31,7-3.42,0-6.43-1.48-8.28-4.13Z"/>
</svg>