<?xml version="1.0" encoding="UTF-8"?>
<svg id="Layer_1" data-name="Layer 1" xmlns="http://www.w3.org/2000/svg" viewBox="0 0 170.42 89.43">
  <defs>
    <style>
      .cls-1 {
        fill: #fff;
      }

      .cls-1, .cls-2 {
        stroke-width: 0px;
      }

      .cls-2 {
        fill: #e86500;
      }
    </style>
  </defs>
  <g>
    <polygon class="cls-2" points="104.87 46.21 101.59 40.43 98.32 34.66 95.04 28.88 91.76 23.1 88.49 17.33 85.21 11.55 81.93 5.78 78.65 0 75.38 5.78 72.1 11.55 68.82 17.33 65.55 23.1 62.27 28.88 58.99 34.66 55.71 40.43 52.44 46.21 49.16 51.99 45.88 57.76 52.44 57.76 58.99 57.76 62.27 51.99 65.55 46.21 68.82 40.43 72.1 34.66 75.38 28.88 78.65 23.1 81.93 28.88 85.21 34.66 91.76 46.21 85.21 46.21 78.65 46.21 78.65 57.76 85.21 57.76 91.76 57.76 98.32 57.76 104.87 57.76 111.43 57.76 108.15 51.99 104.87 46.21"/>
    <polygon class="cls-1" points="163.86 0 157.31 0 154.03 5.78 150.75 11.55 147.48 17.33 144.2 23.1 140.92 28.88 137.64 34.66 134.37 28.88 131.09 23.1 127.81 17.33 124.53 11.55 121.26 5.78 117.98 0 111.43 0 104.87 0 108.15 5.78 111.43 11.55 114.7 17.33 117.98 23.1 121.26 28.88 124.53 34.66 127.81 40.43 131.09 46.21 134.37 51.99 137.64 57.76 140.92 51.99 144.2 46.21 147.48 40.43 150.75 34.66 154.03 28.88 157.31 23.1 160.58 17.33 163.86 11.55 167.14 5.78 170.42 0 163.86 0"/>
    <polygon class="cls-1" points="19.66 11.55 26.22 11.55 32.77 11.55 39.33 11.55 45.88 11.55 49.16 5.78 52.44 0 45.88 0 39.33 0 32.77 0 26.22 0 19.66 0 13.11 0 6.56 0 0 0 0 11.55 0 23.1 0 34.66 0 46.21 0 57.76 6.56 57.76 13.11 57.76 13.11 46.21 13.11 34.66 19.66 34.66 26.22 34.66 32.77 34.66 36.05 28.88 39.33 23.1 32.77 23.1 26.22 23.1 19.66 23.1 13.11 23.1 13.11 11.55 19.66 11.55"/>
  </g>
  <path class="cls-1" d="M0,84.72l4.47-3.16.54.14c.83,1.05,1.99,1.62,3.25,1.62.94,0,1.51-.28,1.51-.77,0-.6-.48-.88-3.79-2.28-3.62-1.51-4.98-3.27-4.98-6.43,0-3.53,3.44-6.24,7.89-6.24,3.3,0,6.12,1.37,7.97,3.9l-4.47,3.36-.54-.11c-.71-.97-1.77-1.59-2.88-1.59-.8,0-1.17.28-1.17.71,0,.46.17.63,3.79,2.14,3.56,1.48,5.01,3.33,5.01,5.84,0,4.1-3.47,7-8.31,7-3.42,0-6.43-1.48-8.28-4.13Z"/>
  <path class="cls-1" d="M40.15,88.85l-6.27-21.24h7.74l1.68,9.24c.18.93.39,2.31.54,4.23h.06c.21-1.68.39-2.88.69-4.26l2.04-9.21h5.22l2.04,9.21c.3,1.38.48,2.58.69,4.26h.06c.15-1.92.36-3.3.54-4.23l1.68-9.24h7.74l-6.27,21.24h-6.72l-1.62-7.32c-.21-.96-.45-2.1-.72-3.54h-.06c-.27,1.44-.51,2.58-.72,3.54l-1.62,7.32h-6.72Z"/>
  <path class="cls-1" d="M93.97,88.85l-.69-2.7h-5.79l-.69,2.7h-8.28l7.65-21.24h8.58l7.5,21.24h-8.28ZM88.78,81.05h3.15l-.57-2.22c-.3-1.14-.72-3.12-.93-5.19h-.15c-.21,2.07-.63,4.05-.93,5.19l-.57,2.22Z"/>
  <path class="cls-1" d="M119.17,88.85v-21.24h8.43c5.97,0,8.88,2.61,8.88,7.53,0,4.53-2.79,7.29-7.83,7.29h-2.4v6.42h-7.08ZM126.28,77.09h1.23c1.44,0,2.25-.66,2.25-1.95,0-1.41-.81-2.04-2.25-2.04h-1.23v3.99Z"/>
  <path class="cls-1" d="M153.56,84.72l4.47-3.16.54.14c.83,1.05,1.99,1.62,3.25,1.62.94,0,1.51-.28,1.51-.77,0-.6-.48-.88-3.79-2.28-3.62-1.51-4.98-3.27-4.98-6.43,0-3.53,3.44-6.24,7.89-6.24,3.3,0,6.12,1.37,7.97,3.9l-4.47,3.36-.54-.11c-.71-.97-1.77-1.59-2.88-1.59-.8,0-1.17.28-1.17.71,0,.46.17.63,3.79,2.14,3.56,1.48,5.01,3.33,5.01,5.84,0,4.1-3.47,7-8.31,7-3.42,0-6.43-1.48-8.28-4.13Z"/>
</svg>