<?xml version="1.0" encoding="UTF-8"?>
<svg id="Layer_1" data-name="Layer 1" xmlns="http://www.w3.org/2000/svg" viewBox="0 0 170.42 113.04">
  <defs>
    <style>
      .cls-1 {
        letter-spacing: .05em;
      }

      .cls-2 {
        letter-spacing: .06em;
      }

      .cls-3 {
        letter-spacing: .06em;
      }

      .cls-4 {
        font-family: MyriadConceptRoman-Regular, 'Myriad Variable Concept';
        font-size: 16.53px;
        font-variation-settings: 'wght' 400, 'wdth' 100;
      }

      .cls-5 {
        letter-spacing: .05em;
      }

      .cls-6 {
        letter-spacing: .06em;
      }

      .cls-7 {
        letter-spacing: .06em;
      }

      .cls-8, .cls-9 {
        stroke-width: 0px;
      }

      .cls-10 {
        letter-spacing: .05em;
      }

      .cls-9 {
        fill: #00a0d8;
      }
    </style>
  </defs>
  <g>
    <path class="cls-8" d="m0,67.66h6.95v14.91h8.5l-.78,6.29H0v-21.2Z"/>
    <path class="cls-8" d="m34.45,78.25c0-6.28,5.03-10.6,11.74-10.6s11.74,4.32,11.74,10.6-5.03,10.6-11.74,10.6-11.74-4.52-11.74-10.6Zm16.11,0c0-2.73-1.95-4.49-4.37-4.49s-4.37,1.76-4.37,4.49,1.95,4.46,4.37,4.46,4.37-1.85,4.37-4.46Z"/>
    <path class="cls-8" d="m88.22,88.85l-.69-2.69h-5.78l-.69,2.69h-8.26l7.63-21.2h8.56l7.48,21.2h-8.26Zm-5.18-7.78h3.14l-.57-2.21c-.3-1.14-.72-3.11-.93-5.18h-.15c-.21,2.07-.63,4.04-.93,5.18l-.57,2.21Z"/>
    <path class="cls-8" d="m112.9,88.85v-21.2h7.42l3.74,5.87c.72,1.14,1.47,2.31,2.78,4.64h.06c-.48-2.33-.57-3.5-.57-5.24v-5.27h6.95v21.2h-6.89l-4.19-6.14c-.78-1.14-1.56-2.3-2.93-4.64h-.06c.48,2.33.6,3.5.6,5.24v5.54h-6.92Z"/>
    <path class="cls-8" d="m152.69,84.73l4.7-3.15.57.14c.87,1.05,2.1,1.62,3.41,1.62.99,0,1.59-.28,1.59-.77,0-.6-.51-.88-3.98-2.27-3.8-1.51-5.24-3.27-5.24-6.42,0-3.52,3.62-6.22,8.29-6.22,3.47,0,6.44,1.36,8.38,3.89l-4.7,3.35-.57-.11c-.75-.97-1.86-1.59-3.02-1.59-.84,0-1.23.28-1.23.71,0,.46.18.63,3.98,2.13,3.74,1.48,5.27,3.32,5.27,5.82,0,4.09-3.65,6.99-8.74,6.99-3.59,0-6.77-1.48-8.71-4.12Z"/>
    <g>
      <polygon class="cls-9" points="104.87 46.21 101.59 40.43 98.32 34.66 95.04 28.88 91.76 23.1 88.49 17.33 85.21 11.55 81.93 5.78 78.65 0 75.38 5.78 72.1 11.55 68.82 17.33 65.55 23.1 62.27 28.88 58.99 34.66 55.71 40.43 52.44 46.21 49.16 51.99 45.88 57.76 52.44 57.76 58.99 57.76 62.27 51.99 65.55 46.21 68.82 40.43 72.1 34.66 75.38 28.88 78.65 23.1 81.93 28.88 85.21 34.66 91.76 46.21 85.21 46.21 78.65 46.21 78.65 57.76 85.21 57.76 91.76 57.76 98.32 57.76 104.87 57.76 111.43 57.76 108.15 51.99 104.87 46.21"/>
      <polygon class="cls-8" points="163.86 0 157.31 0 154.03 5.78 150.75 11.55 147.48 17.33 144.2 23.1 140.92 28.88 137.64 34.66 134.37 28.88 131.09 23.1 127.81 17.33 124.53 11.55 121.26 5.78 117.98 0 111.43 0 104.87 0 108.15 5.78 111.43 11.55 114.7 17.33 117.98 23.1 121.26 28.88 124.53 34.66 127.81 40.43 131.09 46.21 134.37 51.99 137.64 57.76 140.92 51.99 144.2 46.21 147.48 40.43 150.75 34.66 154.03 28.88 157.31 23.1 160.58 17.33 163.86 11.55 167.14 5.78 170.42 0 163.86 0"/>
      <polygon class="cls-8" points="19.66 11.55 26.22 11.55 32.77 11.55 39.33 11.55 45.88 11.55 49.16 5.78 52.44 0 45.88 0 39.33 0 32.77 0 26.22 0 19.66 0 13.11 0 6.56 0 0 0 0 11.55 0 23.1 0 34.66 0 46.21 0 57.76 6.56 57.76 13.11 57.76 13.11 46.21 13.11 34.66 19.66 34.66 26.22 34.66 32.77 34.66 36.05 28.88 39.33 23.1 32.77 23.1 26.22 23.1 19.66 23.1 13.11 23.1 13.11 11.55 19.66 11.55"/>
    </g>
  </g>
  <text class="cls-4" transform="translate(-1.45 109.77)"><tspan class="cls-2" x="0" y="0">B</tspan><tspan class="cls-6" x="10" y="0">o</tspan><tspan class="cls-3" x="20.05" y="0">r</tspan><tspan class="cls-5" x="26.49" y="0">r</tspan><tspan class="cls-10" x="32.71" y="0">o</tspan><tspan class="cls-6" x="42.64" y="0">w mo</tspan><tspan class="cls-1" x="85.07" y="0">r</tspan><tspan class="cls-7" x="91.28" y="0">e with less</tspan></text>
</svg>