<?xml version="1.0" encoding="UTF-8"?>
<svg id="Layer_1" data-name="Layer 1" xmlns="http://www.w3.org/2000/svg" viewBox="0 0 170.42 88.85">
  <defs>
    <style>
      .cls-1 {
        fill: #fff;
      }

      .cls-1, .cls-2 {
        stroke-width: 0px;
      }

      .cls-2 {
        fill: #fa0;
      }
    </style>
  </defs>
  <path class="cls-1" d="m0,67.68h13.92l.63,5.8h-7.6v1.94h6.56v5.47h-6.56v2.15h7.6l-.63,5.8H0v-21.17Z"/>
  <path class="cls-1" d="m61.83,88.85l-.69-2.69h-5.78l-.69,2.69h-8.26l7.63-21.17h8.56l7.48,21.17h-8.26Zm-5.18-7.77h3.14l-.57-2.21c-.3-1.14-.72-3.11-.93-5.17h-.15c-.21,2.06-.63,4.04-.93,5.17l-.57,2.21Z"/>
  <path class="cls-1" d="m118.97,88.28l-.24.57h-7.36l-4.37-6.88h-.42v6.88h-7.06v-21.17h8.65c5.96,0,8.8,2.45,8.8,7.36,0,2.66-1.17,4.6-3.26,5.71l5.27,7.53Zm-12.36-15.13v3.74h1.44c1.44,0,2.25-.66,2.25-1.85,0-1.26-.81-1.88-2.25-1.88h-1.44Z"/>
  <path class="cls-1" d="m150.03,88.85v-21.2h7.42l3.74,5.87c.72,1.14,1.47,2.31,2.78,4.64h.06c-.48-2.33-.57-3.5-.57-5.24v-5.27h6.95v21.2h-6.89l-4.19-6.14c-.78-1.14-1.56-2.3-2.93-4.64h-.06c.48,2.33.6,3.5.6,5.24v5.54h-6.92Z"/>
  <g>
    <polygon class="cls-2" points="104.87 46.21 101.59 40.43 98.32 34.66 95.04 28.88 91.76 23.1 88.49 17.33 85.21 11.55 81.93 5.78 78.65 0 75.38 5.78 72.1 11.55 68.82 17.33 65.55 23.1 62.27 28.88 58.99 34.66 55.71 40.43 52.44 46.21 49.16 51.99 45.88 57.76 52.44 57.76 58.99 57.76 62.27 51.99 65.55 46.21 68.82 40.43 72.1 34.66 75.38 28.88 78.65 23.1 81.93 28.88 85.21 34.66 91.76 46.21 85.21 46.21 78.65 46.21 78.65 57.76 85.21 57.76 91.76 57.76 98.32 57.76 104.87 57.76 111.43 57.76 108.15 51.99 104.87 46.21"/>
    <polygon class="cls-1" points="163.86 0 157.31 0 154.03 5.78 150.75 11.55 147.48 17.33 144.2 23.1 140.92 28.88 137.64 34.66 134.37 28.88 131.09 23.1 127.81 17.33 124.53 11.55 121.26 5.78 117.98 0 111.43 0 104.87 0 108.15 5.78 111.43 11.55 114.7 17.33 117.98 23.1 121.26 28.88 124.53 34.66 127.81 40.43 131.09 46.21 134.37 51.99 137.64 57.76 140.92 51.99 144.2 46.21 147.48 40.43 150.75 34.66 154.03 28.88 157.31 23.1 160.58 17.33 163.86 11.55 167.14 5.78 170.42 0 163.86 0"/>
    <polygon class="cls-1" points="19.66 11.55 26.22 11.55 32.77 11.55 39.33 11.55 45.88 11.55 49.16 5.78 52.44 0 45.88 0 39.33 0 32.77 0 26.22 0 19.66 0 13.11 0 6.56 0 0 0 0 11.55 0 23.1 0 34.66 0 46.21 0 57.76 6.56 57.76 13.11 57.76 13.11 46.21 13.11 34.66 19.66 34.66 26.22 34.66 32.77 34.66 36.05 28.88 39.33 23.1 32.77 23.1 26.22 23.1 19.66 23.1 13.11 23.1 13.11 11.55 19.66 11.55"/>
  </g>
</svg>