<?xml version="1.0" encoding="UTF-8"?>
<svg id="Layer_1" data-name="Layer 1" xmlns="http://www.w3.org/2000/svg" viewBox="0 0 112.96 38.29">
  <defs>
    <style>
      .cls-1 {
        stroke-width: 0px;
      }
    </style>
  </defs>
  <polygon class="cls-1" points="69.52 30.63 67.34 26.8 65.17 22.97 63 19.14 60.83 15.32 58.65 11.49 56.48 7.66 54.31 3.83 52.14 0 49.96 3.83 47.79 7.66 45.62 11.49 43.45 15.32 41.27 19.14 39.1 22.97 36.93 26.8 34.76 30.63 32.59 34.46 30.41 38.29 34.76 38.29 39.1 38.29 41.27 34.46 43.45 30.63 45.62 26.8 47.79 22.97 49.96 19.14 52.14 15.32 54.31 19.14 56.48 22.97 60.83 30.63 56.48 30.63 52.14 30.63 52.14 38.29 56.48 38.29 60.83 38.29 65.17 38.29 69.52 38.29 73.86 38.29 71.69 34.46 69.52 30.63"/>
  <polygon class="cls-1" points="108.62 0 104.27 0 102.1 3.83 99.93 7.66 97.76 11.49 95.58 15.32 93.41 19.14 91.24 22.97 89.07 19.14 86.89 15.32 84.72 11.49 82.55 7.66 80.38 3.83 78.2 0 73.86 0 69.52 0 71.69 3.83 73.86 7.66 76.03 11.49 78.2 15.32 80.38 19.14 82.55 22.97 84.72 26.8 86.89 30.63 89.07 34.46 91.24 38.29 93.41 34.46 95.58 30.63 97.76 26.8 99.93 22.97 102.1 19.14 104.27 15.32 106.44 11.49 108.62 7.66 110.79 3.83 112.96 0 108.62 0"/>
  <polygon class="cls-1" points="13.03 7.66 17.38 7.66 21.72 7.66 26.07 7.66 30.41 7.66 32.59 3.83 34.76 0 30.41 0 26.07 0 21.72 0 17.38 0 13.03 0 8.69 0 4.35 0 0 0 0 7.66 0 15.32 0 22.97 0 30.63 0 38.29 4.35 38.29 8.69 38.29 8.69 30.63 8.69 22.97 13.03 22.97 17.38 22.97 21.72 22.97 23.9 19.14 26.07 15.32 21.72 15.32 17.38 15.32 13.03 15.32 8.69 15.32 8.69 7.66 13.03 7.66"/>
</svg>